<svg width="131" height="29" viewBox="0 0 131 29" fill="none" xmlns="http://www.w3.org/2000/svg">
<mask id="mask0_3860_13939" style="mask-type:luminance" maskUnits="userSpaceOnUse" x="0" y="0" width="68" height="24">
<path d="M67.9688 0.226562H0V23.5315H67.9688V0.226562Z" fill="white"/>
</mask>
<g mask="url(#mask0_3860_13939)">
<path d="M59.9712 0.227539C53.0343 0.227539 51.6729 1.5702 50.1805 6.46352L47.558 15.1793C47.4984 15.3906 47.4434 15.5969 47.3926 15.7974C47.0759 17.0419 46.9277 18.0628 46.9277 18.7292C46.9277 19.5855 47.0546 20.3502 47.3926 21.0043C48.213 22.5951 50.2786 23.5316 54.7938 23.5316C61.6643 23.5316 63.0576 22.2348 64.352 18.1373L65.5799 14.156H58.5114L57.7803 16.6129C57.4495 17.5683 57.2497 18.4795 55.8219 18.4795C54.8592 18.4795 54.3622 17.7288 54.6938 16.7496L57.4495 7.23719C57.7139 6.28096 58.0121 5.37056 59.4399 5.37056C60.4019 5.37056 60.8668 6.09839 60.5688 7.10048L59.6723 10.3081H66.7744L67.3385 8.44232C67.8037 6.91708 67.969 5.55315 67.969 4.84661C67.969 2.00329 67.0725 0.227539 59.9712 0.227539Z" fill="#EE3425"/>
<path d="M47.3926 2.4395C46.6223 1.03707 44.6566 0.226562 39.8592 0.226562C32.9558 0.226562 31.5624 1.56922 30.1018 6.46254L27.4469 15.1792C27.3069 15.6753 27.1907 16.142 27.098 16.5726C26.9066 17.4674 26.8164 18.2067 26.8164 18.7282C26.8164 19.4086 26.8966 20.0308 27.098 20.5858C27.7693 22.4287 29.7841 23.5306 34.6817 23.5306C41.552 23.5306 42.9456 22.2339 44.24 18.1363L45.5015 14.155H38.3976L37.669 16.6127C37.371 17.5681 37.1377 18.4785 35.7108 18.4785C34.7479 18.4785 34.2511 17.7278 34.5825 16.7494L37.371 7.23621C37.6028 6.2808 37.9343 5.36958 39.3614 5.36958C40.2905 5.36958 40.7883 6.09823 40.4568 7.0995L39.561 10.3079H46.6624L47.2265 8.44134C47.287 8.24403 47.3427 8.05 47.3926 7.85842C47.7315 6.57472 47.8577 5.46048 47.8577 4.84645C47.8577 3.92378 47.7628 3.11327 47.3926 2.4395Z" fill="#EE3425"/>
<path d="M17.8893 14.2691H14.0054L19.6143 5.71128H19.8468L17.8893 14.2691ZM27.0987 0.75H16.0963L0 23.1897H8.39652L11.1514 18.7744H16.8929L15.8974 23.1897H23.8634L27.0987 2.5503L27.3812 0.75" fill="#EE3425"/>
</g>
<path d="M108.572 28.3688C110.962 21.0395 113.357 13.708 115.738 6.37639C115.88 5.93686 116.053 5.66272 116.578 5.66725C118.341 5.68538 120.104 5.67405 121.848 5.67405C122.041 6.22913 121.508 6.63014 121.66 7.13085C122.014 7.28944 122.115 6.95866 122.281 6.80007C123.208 5.90514 124.331 5.42257 125.584 5.23452C128.287 4.83124 130.201 6.43757 129.916 9.12686C129.472 13.3319 128.165 17.3035 125.781 20.8379C124.624 22.5552 122.965 23.6042 120.786 23.6676C119.132 23.7152 117.725 23.398 117.154 21.3159C116.25 23.9191 115.338 26.5993 114.527 28.9374C113.543 28.9374 113.538 28.9374 113.028 28.9374C111.581 28.9578 111.229 28.9488 111.229 28.9488C110.624 28.951 110.017 28.9533 109.412 28.9578C108.183 28.9671 108.41 28.9578 108.576 28.3688H108.572ZM123.198 11.5987C123.201 10.8034 123.278 10.2098 122.652 9.98327C122.016 9.75217 121.486 9.99686 121.071 10.527C120.074 11.798 119.673 13.3296 119.186 14.8158C118.862 15.8059 118.484 16.7983 118.479 17.8631C118.475 18.928 119.184 19.3607 120.113 18.8441C120.428 18.6697 120.738 18.3933 120.915 18.0851C122.122 15.9849 122.711 13.6717 123.196 11.6009L123.198 11.5987Z" fill="#231F20"/>
<path d="M79.1826 7.367C79.5633 7.5709 79.7626 7.31942 79.9824 7.11778C81.5729 5.67004 83.4533 5.28489 85.5309 5.63153C87.0761 5.88981 87.7444 6.67825 87.7535 8.21661C87.7603 9.52387 87.2165 10.6861 86.8155 11.8869C85.6238 15.4598 84.4049 19.0259 83.2426 22.6079C83.0455 23.2127 82.7963 23.4392 82.1506 23.4189C80.644 23.3713 79.1351 23.3735 77.6284 23.4143C76.8604 23.4347 76.7675 23.2421 77.0099 22.5195C78.1495 19.1256 79.2302 15.7113 80.3087 12.297C80.5556 11.5176 81.1107 10.6159 79.9416 10.0789C79.1101 9.69606 78.3806 10.1628 77.9297 11.4904C76.7063 15.0905 75.5146 18.7019 74.3818 22.3314C74.1258 23.1492 73.7972 23.4778 72.9114 23.4143C71.4863 23.3124 70.0499 23.3192 68.618 23.326C67.9791 23.3282 67.859 23.1402 68.0539 22.5399C70.4283 15.2786 72.7868 8.01043 75.1408 0.740041C75.2903 0.275588 75.4489 -0.0234748 76.0493 0.00144694C77.5922 0.0648845 79.1373 0.0694158 80.6825 0.0603533C81.3803 0.055822 81.6069 0.223478 81.344 0.962073C80.5941 3.06684 79.9099 5.19426 79.1826 7.36246V7.367Z" fill="#231F20"/>
<path d="M101.509 17.3268C100.292 21.6156 96.3203 24.1554 91.5308 23.8087C90.7832 23.7543 90.0355 23.675 89.315 23.4281C87.4776 22.796 86.517 21.534 86.6824 19.6037C87.0177 15.7114 88.1845 12.0637 90.4501 8.84653C93.0714 5.12411 97.9471 4.51918 101.491 5.56364C103.351 6.11192 104.241 7.82926 103.926 9.96121C103.679 11.6242 103.244 13.2441 102.732 14.8482C102.544 15.4372 102.268 15.5709 101.697 15.5641C99.3993 15.5369 97.102 15.5958 94.8046 15.5369C94.0389 15.5165 93.7239 15.7884 93.5903 16.4749C93.4136 17.3879 93.0443 18.2647 93.0941 19.2186C93.1145 19.6286 93.0465 20.0931 93.5676 20.2404C94.0343 20.3718 94.4512 20.2449 94.7865 19.8643C95.2691 19.3182 95.5274 18.6522 95.7494 17.9861C95.8967 17.5443 96.0281 17.3041 96.5696 17.3177C98.185 17.3585 99.8049 17.3313 101.506 17.3313L101.509 17.3268ZM96.2343 12.1566C96.633 12.0048 97.2538 12.4738 97.58 11.8054C98.0536 10.8357 97.9176 9.3495 97.3376 9.10028C96.6647 8.81028 95.8695 9.42653 95.3167 10.6658C95.3008 10.6998 95.2782 10.7315 95.2623 10.7655C94.6846 12.1 94.7231 12.1566 96.2343 12.1589V12.1566Z" fill="#231F20"/>
<path d="M109.638 0.239258C111.628 0.239258 113.617 0.239258 115.744 0.239258C115.037 2.45956 114.355 4.63683 113.649 6.80503C111.952 12.0092 110.223 17.2042 108.558 22.4197C108.324 23.1516 108.039 23.4416 107.25 23.4054C105.785 23.3374 104.314 23.3487 102.848 23.394C102.012 23.4189 101.817 23.2445 102.105 22.3835C103.712 17.5826 105.248 12.7591 106.825 7.94917C107.647 5.44339 108.508 2.94894 109.351 0.447695C109.448 0.377461 109.543 0.309492 109.641 0.239258H109.638Z" fill="#231F20"/>
</svg>
