<svg xmlns="http://www.w3.org/2000/svg" viewBox="0 0 370.1 126.3"><defs><style>.cls-1{fill:#fcfcfc;fill-rule:evenodd;}</style></defs><title>dalmia-cement</title><g id="Layer_2" data-name="Layer 2"><g id="Logo"><path class="cls-1" d="M285.1,93.7h-1a17.8,17.8,0,0,0-12.1,5c-3.4,3.3-5.3,7.7-5.6,13.2s.9,7.9,3.6,10.5,6.7,3.9,11.7,3.9h2.4a19.3,19.3,0,0,0,8.3-2.5,14.1,14.1,0,0,0,6.2-7.4H287.4a3.3,3.3,0,0,1-1.7,1.8,4.4,4.4,0,0,1-1.6.6h-1.3a4.8,4.8,0,0,1-3.8-1.5c-.8-.9-1.1-2.3-1-4.2v-.5h21.8l.3-1.5c0-.5.1-1,.1-1.5.3-5.2-.8-9.1-3.3-11.8S290.4,93.7,285.1,93.7Zm4.2,12.9H278.9a7.4,7.4,0,0,1,2.2-4.1,4.7,4.7,0,0,1,3-1.4h.7a3.9,3.9,0,0,1,3.4,1.5A6.1,6.1,0,0,1,289.3,106.6Zm39.4-12.7a12.6,12.6,0,0,0-5.5,1.2,18.1,18.1,0,0,0-4.9,3.7l.8-4H308.6l-6.5,30.4h11.6L317,109a9.5,9.5,0,0,1,2-4.5,4.5,4.5,0,0,1,3.5-1.5,3.3,3.3,0,0,1,2.6,1,2.9,2.9,0,0,1,.8,2.5v.5l-.3,1-3.4,17.2h11.5l3.6-17.5c.1-.8.3-1.5.4-2.2s.1-1.3.2-1.8c.2-3-.5-5.4-2.2-7.1A9.1,9.1,0,0,0,328.7,93.9Zm25.5,19.7v-.3l2.5-11.8h4.5l1.5-6.7h-4.6l2-9.3H348.9l-2,9.3h-4.2l-1.4,6.7h4.2l-2.8,13.7a16.2,16.2,0,0,0-.4,1.9,7.8,7.8,0,0,0-.2,1.4,5.8,5.8,0,0,0,1.9,5.2,9.3,9.3,0,0,0,6.3,1.9l3.1-.2,3.4-.3,1.8-8.7h-1.4a4.9,4.9,0,0,1-2.5-.5,2.3,2.3,0,0,1-.6-1.8A.7.7,0,0,1,354.2,113.6ZM204.7,97.8c2.6,2.7,3.7,6.6,3.4,11.8-.1.5-.1,1-.2,1.5a7.7,7.7,0,0,1-.2,1.5H185.9v.5c-.1,1.9.2,3.3,1,4.2a4.6,4.6,0,0,0,3.8,1.5H192a4.4,4.4,0,0,0,1.6-.6,3.1,3.1,0,0,0,1.6-1.8h11.2a13.9,13.9,0,0,1-6.1,7.4,19.3,19.3,0,0,1-8.3,2.5h-2.4c-5.1,0-8.9-1.3-11.7-3.9s-3.9-6.1-3.6-10.5,2.2-9.9,5.6-13.2a17.8,17.8,0,0,1,12.1-5h1C198.3,93.7,202.2,95.1,204.7,97.8Zm-7.6,8.8H186.8a8,8,0,0,1,2.1-4.1,5.2,5.2,0,0,1,3.1-1.4h.7a3.9,3.9,0,0,1,3.4,1.5A5.6,5.6,0,0,1,197.1,106.6Zm57-12.8a12.2,12.2,0,0,0-5.6,1.4,16.3,16.3,0,0,0-5.1,4.2,6.7,6.7,0,0,0-2.4-4.2,8.5,8.5,0,0,0-5-1.4,12.1,12.1,0,0,0-5.3,1.2,17.4,17.4,0,0,0-4.7,3.7l.9-3.9H216.5L210,125.2h11.2l3.6-16.7a9.8,9.8,0,0,1,1.8-4.1,3.7,3.7,0,0,1,2.9-1.2,3.8,3.8,0,0,1,2.4.7,4.5,4.5,0,0,1,.5,3.2,3.6,3.6,0,0,1-.2,1l-3.4,17.1H240l3.5-16.5a11.1,11.1,0,0,1,1.8-4.2,3.9,3.9,0,0,1,3.1-1.3,3.4,3.4,0,0,1,2.2.7,2.5,2.5,0,0,1,.6,2.2,4.1,4.1,0,0,1-.1,1.1,3.6,3.6,0,0,1-.2,1l-3.4,17h11.3l3.6-17.9c.2-.9.3-1.7.4-2.4a11.5,11.5,0,0,0,.2-1.6q.3-4.5-2.1-6.9A9,9,0,0,0,254.1,93.8Zm-83.3,13v-.4c0-4.1-1.3-7.3-3.7-9.4s-6.1-3.3-10.7-3.3a22.1,22.1,0,0,0-7.8,1.4,18.8,18.8,0,0,0-6.3,4,18.5,18.5,0,0,0-4,5.6,17.4,17.4,0,0,0-1.7,6.6c-.4,4.6.9,8.3,3.6,10.9s6.7,4.1,11.8,4.1a19.1,19.1,0,0,0,11.3-3.4,16.3,16.3,0,0,0,6.3-9.3v-.5h-11v.3a8,8,0,0,1-2.6,3.3,6.4,6.4,0,0,1-3.8,1.2,4,4,0,0,1-3.4-1.4,6.9,6.9,0,0,1-1-4.6,13.6,13.6,0,0,1,2.6-7.3,6.7,6.7,0,0,1,5.4-2.7,4.1,4.1,0,0,1,3.2,1.2,3.9,3.9,0,0,1,1,3.3v.4ZM370.1,33.1v1.8c-.1,1-.3,2.1-.5,3.6a44.7,44.7,0,0,1-.9,4.5l-4.4,19.8a28.4,28.4,0,0,1-.6,2.9,14.9,14.9,0,0,0-.2,1.7,10.1,10.1,0,0,0,.2,3.1,9.4,9.4,0,0,0,1.3,2.4v1.4H344.2l-.4-5.1a39.6,39.6,0,0,1-5.8,3.6l-3.6,1.6a29.7,29.7,0,0,1-9.8,1.7q-8.1,0-12.6-4.2a13.2,13.2,0,0,1-4.1-11.1c.4-6.3,2.8-10.9,7-14.1s11.3-5.1,21-6.1l2.1-.2h1c6.9-.7,10.5-2.4,10.7-5.1a3.6,3.6,0,0,0-1.6-3.4,8.7,8.7,0,0,0-4.9-1.2,9.8,9.8,0,0,0-5.2,1.2h-.2a6.4,6.4,0,0,0-2.5,4.2H315.2c1.3-6.2,4.4-10.8,9.4-13.9s8-3.4,13.4-4.1a61.2,61.2,0,0,1,7.6-.4c8.4,0,14.6,1.5,18.8,4.4A13.1,13.1,0,0,1,370.1,33.1ZM342.8,59.6a9.4,9.4,0,0,1-4.8,3,13.6,13.6,0,0,1-3.6.5,6.1,6.1,0,0,1-3.9-1.2,4,4,0,0,1-1.2-3.3c.2-3.1,3.1-5.2,8.7-6.5h.1c3.6-.8,6.4-1.5,8.7-2.2C346.3,54,345,57.3,342.8,59.6ZM256.4,16.2a22.5,22.5,0,0,0-10.1,2.5,33,33,0,0,0-9.2,7.5c-.8-3.3-2.2-5.8-4.5-7.5a14.9,14.9,0,0,0-8.9-2.5,21.7,21.7,0,0,0-9.5,2.2,28.8,28.8,0,0,0-8.5,6.7l1.6-7.1H188.4L178.1,65.3l-1.9,9h20.3l7-31.6a16.1,16.1,0,0,1,3.1-7.3,6.7,6.7,0,0,1,5.3-2.2,6,6,0,0,1,4.3,1.3,5,5,0,0,1,1.2,4,11.1,11.1,0,0,1-.2,1.7l-.3,1.8-6.8,32.3h20.3l6.9-31.2c.8-3.6,1.8-6.1,3.2-7.6a7,7,0,0,1,5.6-2.3,5.4,5.4,0,0,1,4,1.3,4.3,4.3,0,0,1,1.1,3.8,13.6,13.6,0,0,1-.2,2.1l-.3,1.8-6.8,32.1h20.4l7.1-33.8c.3-1.6.5-3,.7-4.2s.3-2.3.4-3c.3-5.3-.9-9.5-3.8-12.5S261.7,16.2,256.4,16.2ZM180.1,0H159.3l-15,74.3h20.9L178.1,9.7ZM311.7,0H290.8l-3.2,15.2h21.1ZM275.3,74.3h20.9l11.4-54.2H286.7ZM140.5,34.9a30.1,30.1,0,0,1-.4,3.6c-.3,1.4-.5,2.9-.9,4.5l-4.4,19.8c-.3,1.2-.5,2.2-.6,2.9a14.9,14.9,0,0,0-.2,1.7,10.1,10.1,0,0,0,.2,3.1,9,9,0,0,0,1.2,2.4v1.4H114.6l-.3-5.1a45.7,45.7,0,0,1-5.8,3.6l-3.6,1.6a30.2,30.2,0,0,1-9.8,1.7q-8.1,0-12.6-4.2c-3.1-2.8-4.4-6.5-4.1-11.1.4-6.3,2.7-10.9,7-14.1s11.2-5.1,21-6.1l2.1-.2h.9c7-.7,10.6-2.3,10.8-5.1a4.1,4.1,0,0,0-1.6-3.4,8.7,8.7,0,0,0-4.9-1.2,9.5,9.5,0,0,0-5.2,1.2h-.3a6,6,0,0,0-2.4,4.2H85.7a19.7,19.7,0,0,1,9.4-13.8c3.5-2.2,7.9-3.5,13.4-4.2a60.2,60.2,0,0,1,7.6-.4c8.3,0,14.6,1.5,18.7,4.4S140.9,29.3,140.5,34.9ZM113.3,59.6a10.3,10.3,0,0,1-4.8,3,13.6,13.6,0,0,1-3.6.5,5.7,5.7,0,0,1-3.9-1.2,3.8,3.8,0,0,1-1.3-3.3c.2-3.1,3.1-5.2,8.8-6.5h.1c3.5-.8,6.4-1.5,8.6-2.2A16.3,16.3,0,0,1,113.3,59.6ZM76.1,20.9a41.6,41.6,0,0,1,.8,12.4c-.9,13.3-5,23.5-12.4,30.5S50.4,73,40.4,74c-2.1.2-4.3.3-6.5.3H0L15.9,0H45.1c7.4,0,13,.8,17,2.5a24,24,0,0,1,10,8.6A28,28,0,0,1,76.1,20.9ZM53.6,33.4a36.1,36.1,0,0,1-2.5,11,18.9,18.9,0,0,1-4.8,7.7A12.6,12.6,0,0,1,41,55l-.6.2a32.4,32.4,0,0,1-7.8.7H27.1l8-37.8h5.3c5.2,0,8.8,1.2,10.8,3.4S53.9,27.8,53.6,33.4Z"/></g></g></svg>