<svg xmlns="http://www.w3.org/2000/svg" viewBox="0 0 500 500"><g id="freepik--Floor--inject-506"><path id="freepik--floor--inject-506" d="M96.62,265.82c-84.7,48.9-84.7,128.19,0,177.09s222,48.91,306.75,0,84.7-128.19,0-177.09S181.33,216.91,96.62,265.82Z" style="fill:#f5f5f5"></path></g><g id="freepik--Shadows--inject-506"><polygon id="freepik--Shadow--inject-506" points="38.52 342.41 217.45 239.08 291.47 281.73 112.54 385.06 38.52 342.41" style="fill:#e0e0e0;opacity:0.9"></polygon><path id="freepik--shadow--inject-506" d="M67.57,407.15,34.76,388.2c-2-1.13-2-3,0-4.09L81,357.44a7.84,7.84,0,0,1,7.09,0l32.75,19c2,1.14,1.95,3,0,4.1L74.66,407.15A7.84,7.84,0,0,1,67.57,407.15Z" style="fill:#e0e0e0"></path><ellipse id="freepik--shadow--inject-506" cx="236.22" cy="431.5" rx="64.39" ry="37.18" style="fill:#e0e0e0"></ellipse><ellipse id="freepik--shadow--inject-506" cx="316.06" cy="328.92" rx="54.68" ry="31.57" style="fill:#e0e0e0"></ellipse><ellipse id="freepik--shadow--inject-506" cx="415.58" cy="375.33" rx="54.68" ry="31.57" style="fill:#e0e0e0"></ellipse></g><g id="freepik--Circles--inject-506"><g id="freepik--circles--inject-506"><path d="M158.22,54.13a6.32,6.32,0,1,1,6.32-6.32A6.32,6.32,0,0,1,158.22,54.13Zm0-11.63a5.32,5.32,0,1,0,5.32,5.31A5.31,5.31,0,0,0,158.22,42.5Z" style="fill:#e0e0e0"></path><path d="M36.93,154.68a6.32,6.32,0,1,1,6.31-6.32A6.33,6.33,0,0,1,36.93,154.68Zm0-11.63a5.32,5.32,0,1,0,5.31,5.31A5.32,5.32,0,0,0,36.93,143.05Z" style="fill:#e0e0e0"></path><path d="M302.88,38.4a6.32,6.32,0,1,1,6.31-6.31A6.32,6.32,0,0,1,302.88,38.4Zm0-11.63a5.32,5.32,0,1,0,5.31,5.32A5.33,5.33,0,0,0,302.88,26.77Z" style="fill:#e0e0e0"></path><path d="M458.74,262.49a.44.44,0,0,1-.44-.44v-3.21a.44.44,0,0,1,.44-.45.45.45,0,0,1,.45.45v3.21A.45.45,0,0,1,458.74,262.49Z" style="fill:#e0e0e0"></path><path d="M455.8,264.18a.46.46,0,0,1-.22-.06l-2.78-1.6a.44.44,0,0,1-.17-.61.45.45,0,0,1,.61-.16l2.78,1.6a.44.44,0,0,1-.22.83Z" style="fill:#e0e0e0"></path><path d="M453,269.19a.47.47,0,0,1-.39-.22.44.44,0,0,1,.17-.61l2.78-1.61a.45.45,0,0,1,.45.77l-2.79,1.61A.43.43,0,0,1,453,269.19Z" style="fill:#e0e0e0"></path><path d="M458.74,272.49a.44.44,0,0,1-.44-.45v-3.21a.44.44,0,0,1,.44-.44.45.45,0,0,1,.45.44V272A.45.45,0,0,1,458.74,272.49Z" style="fill:#e0e0e0"></path><path d="M464.46,269.19a.46.46,0,0,1-.23-.06l-2.78-1.61a.44.44,0,0,1-.16-.61.45.45,0,0,1,.61-.16l2.78,1.61a.45.45,0,0,1-.22.83Z" style="fill:#e0e0e0"></path><path d="M461.67,264.19a.45.45,0,0,1-.22-.83l2.78-1.61a.45.45,0,0,1,.61.16.44.44,0,0,1-.16.61l-2.78,1.61A.46.46,0,0,1,461.67,264.19Z" style="fill:#e0e0e0"></path><path d="M33.63,225.8a.45.45,0,0,1-.45-.45v-3.21a.44.44,0,0,1,.45-.44.43.43,0,0,1,.44.44v3.21A.44.44,0,0,1,33.63,225.8Z" style="fill:#e0e0e0"></path><path d="M30.69,227.49a.43.43,0,0,1-.22-.06l-2.78-1.6a.45.45,0,0,1-.17-.61.44.44,0,0,1,.61-.16l2.78,1.6a.44.44,0,0,1,.17.61A.47.47,0,0,1,30.69,227.49Z" style="fill:#e0e0e0"></path><path d="M27.91,232.49a.44.44,0,0,1-.39-.22.45.45,0,0,1,.16-.61l2.79-1.61a.45.45,0,0,1,.61.17.43.43,0,0,1-.17.6l-2.78,1.61A.46.46,0,0,1,27.91,232.49Z" style="fill:#e0e0e0"></path><path d="M33.63,235.79a.45.45,0,0,1-.45-.44v-3.21a.45.45,0,0,1,.45-.45.44.44,0,0,1,.44.45v3.21A.44.44,0,0,1,33.63,235.79Z" style="fill:#e0e0e0"></path><path d="M39.35,232.49a.46.46,0,0,1-.23-.06l-2.78-1.61a.44.44,0,0,1,.44-.77l2.79,1.61a.45.45,0,0,1,.16.61A.44.44,0,0,1,39.35,232.49Z" style="fill:#e0e0e0"></path><path d="M36.56,227.49a.44.44,0,0,1-.38-.22.45.45,0,0,1,.16-.61l2.78-1.6a.43.43,0,0,1,.61.16.45.45,0,0,1-.16.61l-2.79,1.61A.42.42,0,0,1,36.56,227.49Z" style="fill:#e0e0e0"></path><path d="M80.25,50.27a.45.45,0,0,1-.44-.45V46.61a.45.45,0,0,1,.89,0v3.21A.45.45,0,0,1,80.25,50.27Z" style="fill:#e0e0e0"></path><path d="M77.32,52a.46.46,0,0,1-.23-.06l-2.78-1.6a.44.44,0,0,1,.44-.77l2.79,1.6a.45.45,0,0,1,.16.61A.44.44,0,0,1,77.32,52Z" style="fill:#e0e0e0"></path><path d="M74.53,57a.43.43,0,0,1-.38-.23.45.45,0,0,1,.16-.61l2.78-1.6a.43.43,0,0,1,.61.16.45.45,0,0,1-.16.61l-2.79,1.61A.43.43,0,0,1,74.53,57Z" style="fill:#e0e0e0"></path><path d="M80.25,60.27a.45.45,0,0,1-.44-.45V56.61a.45.45,0,1,1,.89,0v3.21A.45.45,0,0,1,80.25,60.27Z" style="fill:#e0e0e0"></path><path d="M86,57a.43.43,0,0,1-.22-.06L83,55.3a.45.45,0,0,1-.16-.61.43.43,0,0,1,.61-.16l2.78,1.6A.45.45,0,0,1,86,57Z" style="fill:#e0e0e0"></path><path d="M83.19,52a.43.43,0,0,1-.39-.23.44.44,0,0,1,.16-.6l2.79-1.61a.44.44,0,1,1,.44.77l-2.78,1.61A.46.46,0,0,1,83.19,52Z" style="fill:#e0e0e0"></path><path d="M225.83,58.26a.45.45,0,0,1-.44-.45V54.6a.45.45,0,1,1,.89,0v3.21A.45.45,0,0,1,225.83,58.26Z" style="fill:#e0e0e0"></path><path d="M222.89,60a.46.46,0,0,1-.22-.06l-2.78-1.61a.43.43,0,0,1-.17-.6.45.45,0,0,1,.61-.17l2.79,1.61a.44.44,0,0,1,.16.6A.43.43,0,0,1,222.89,60Z" style="fill:#e0e0e0"></path><path d="M220.11,65a.47.47,0,0,1-.39-.22.44.44,0,0,1,.17-.61l2.78-1.61a.45.45,0,0,1,.45.77l-2.79,1.61A.43.43,0,0,1,220.11,65Z" style="fill:#e0e0e0"></path><path d="M225.83,68.25a.44.44,0,0,1-.44-.44V64.59a.45.45,0,0,1,.89,0v3.22A.45.45,0,0,1,225.83,68.25Z" style="fill:#e0e0e0"></path><path d="M231.55,65a.49.49,0,0,1-.23-.06l-2.78-1.61a.45.45,0,1,1,.45-.77l2.78,1.61a.45.45,0,0,1-.22.83Z" style="fill:#e0e0e0"></path><path d="M228.76,60a.44.44,0,0,1-.38-.22.45.45,0,0,1,.16-.61l2.78-1.61a.44.44,0,0,1,.61.17.43.43,0,0,1-.16.6L229,59.89A.46.46,0,0,1,228.76,60Z" style="fill:#e0e0e0"></path><path d="M450.64,53.82a.45.45,0,0,1-.45-.45V50.16a.45.45,0,1,1,.89,0v3.21A.45.45,0,0,1,450.64,53.82Z" style="fill:#e0e0e0"></path><path d="M447.7,55.51a.43.43,0,0,1-.22-.06l-2.79-1.6a.45.45,0,0,1-.16-.61.45.45,0,0,1,.61-.17l2.78,1.61a.43.43,0,0,1,.17.6A.46.46,0,0,1,447.7,55.51Z" style="fill:#e0e0e0"></path><path d="M444.92,60.51a.44.44,0,0,1-.39-.22.45.45,0,0,1,.16-.61l2.79-1.61a.45.45,0,0,1,.61.16.44.44,0,0,1-.17.61l-2.78,1.61A.46.46,0,0,1,444.92,60.51Z" style="fill:#e0e0e0"></path><path d="M450.64,63.81a.45.45,0,0,1-.45-.44V60.15a.45.45,0,0,1,.89,0v3.22A.44.44,0,0,1,450.64,63.81Z" style="fill:#e0e0e0"></path><path d="M456.35,60.51a.46.46,0,0,1-.22-.06l-2.78-1.61a.44.44,0,0,1-.17-.61.45.45,0,0,1,.61-.16l2.79,1.61a.45.45,0,0,1,.16.61A.44.44,0,0,1,456.35,60.51Z" style="fill:#e0e0e0"></path><path d="M453.57,55.51a.47.47,0,0,1-.39-.22.45.45,0,0,1,.17-.61l2.78-1.61a.45.45,0,0,1,.61.17.45.45,0,0,1-.16.61l-2.79,1.6A.43.43,0,0,1,453.57,55.51Z" style="fill:#e0e0e0"></path></g></g><g id="freepik--character-1--inject-506"><g id="freepik--Character--inject-506"><g id="freepik--Chartacter--inject-506"><g id="freepik--Bottom--inject-506"><path d="M120.51,299.19,119,286.36l15.81-.12s-.41,8.27-.5,12.21,4.08,6.81,4.08,6.81-8.68,3.28-12.46,2-5.8-5.86-5.76-6.86S120.51,299.19,120.51,299.19Z" style="fill:#ffbda7"></path><path d="M156.73,319.06c.24,0,.64,2.38-.62,3.42-1.46,1.2-5.77,3.22-11.54,2.66s-8.92-2.12-11.26-3.84-5.62-4.13-8.23-4.6a16.59,16.59,0,0,1-5.87-2.06c-.79-.67-.74-3.71-.74-3.71Z" style="fill:#263238"></path><path d="M120.51,299.16a.93.93,0,0,0-.86.73c-.16.85-.3,3.29-.65,4.68a22.75,22.75,0,0,0-.4,7.4c.35,1.56,4.31,2.56,6.85,3.38a32.43,32.43,0,0,1,8.26,4.55c2.75,2,8.48,4,12.23,3.88,4.44-.12,9.41-1.55,10.51-3.46,1.37-2.36,2.34-5.09-4.3-7.74-1.26-.51-5.68-2.78-7.19-3.61-4.08-2.24-7-4.32-8.91-8.39a2.29,2.29,0,0,0-1-1.24,2.22,2.22,0,0,0-1.28-.08,45.84,45.84,0,0,0-6.44,1.27c-.87.4-2.12.88-2.08,1.91a3.53,3.53,0,0,0,.27,1.05c.09.21.16.49,0,.62s-.45,0-.62-.14a16.53,16.53,0,0,1-1.82-1.92,6.42,6.42,0,0,0-1.06-.95,10.47,10.47,0,0,1-1.14-.64C120.45,300.1,120.54,299.65,120.51,299.16Z" style="fill:#455a64"></path><path d="M133.71,319.9c-1.17-.84-2.4-1.66-3.64-2.38h0s7.83,4.14,10.91,2.12c2-1.31,1-2.82.94-3.31s7-4.09,8.93-4.35h0c.55.27,1,.48,1.3.6,6.64,2.65,5.67,5.38,4.3,7.74-1.1,1.91-4.69,3.46-10.43,3.58C142.27,324,136.46,321.88,133.71,319.9Z" style="fill:#37474f"></path><path d="M141.35,314.92c4.12,1.41,2.39,2.15,1.25,2.32s-8.11-3.36-12.37-6.32c-4.45-3.08-7.29-6.49-8.94-7.62-.62-.42-1.28-.94-1.87-1.43.09-.83.16-1.58.23-2a.93.93,0,0,1,.86-.73c0,.49-.06.94.35,1.3a10.47,10.47,0,0,0,1.14.64,6.42,6.42,0,0,1,1.06.95,17.37,17.37,0,0,0,1.82,1.92C128.54,308,137.23,313.51,141.35,314.92Z" style="fill:#37474f"></path><path d="M142.3,316.7a.5.5,0,0,1-.26-.08.35.35,0,0,1-.07-.52c1.13-1.32,6.53-4.51,9.55-4.28a.39.39,0,0,1,.37.41.39.39,0,0,1-.44.33c-2.82-.21-7.95,2.95-8.84,4A.44.44,0,0,1,142.3,316.7Z" style="fill:#263238"></path><path d="M138.68,314.76a.38.38,0,0,1-.25-.08.35.35,0,0,1-.07-.52c1.12-1.32,6.53-4.51,9.55-4.27a.39.39,0,0,1,.37.4.4.4,0,0,1-.44.34c-2.82-.21-8,2.94-8.84,4A.43.43,0,0,1,138.68,314.76Z" style="fill:#263238"></path><path d="M135.07,312.93a.38.38,0,0,1-.25-.08.35.35,0,0,1-.07-.52c1.13-1.32,6.53-4.51,9.55-4.27a.39.39,0,0,1,.37.4.4.4,0,0,1-.44.34c-2.82-.22-7.95,2.94-8.85,4A.4.4,0,0,1,135.07,312.93Z" style="fill:#263238"></path><path d="M131.72,310.83a.5.5,0,0,1-.26-.08.36.36,0,0,1-.07-.52c1.13-1.32,6.55-4.51,9.55-4.28a.38.38,0,0,1,.37.41.39.39,0,0,1-.44.33c-2.81-.21-8,2.95-8.84,4A.46.46,0,0,1,131.72,310.83Z" style="fill:#263238"></path><path d="M128.43,308.72a.41.41,0,0,1-.25-.08.35.35,0,0,1-.08-.52c1.55-1.87,7.23-4.56,10.24-4.32a.38.38,0,0,1,.37.4.4.4,0,0,1-.44.34c-2.71-.21-8.15,2.37-9.52,4A.41.41,0,0,1,128.43,308.72Z" style="fill:#263238"></path><path d="M89.47,304.6,93,292l-15.78-2.32-.65,12.15s-1.65,4.35-.68,5.94,11.46,3.35,12.43,2.31S89.47,304.6,89.47,304.6Z" style="fill:#ffbda7"></path><path d="M88,332c-.5,3.89-1.35,6.4-3.09,8.5s-4.81,2.42-7.83,1.36-6.84-3.38-7.52-6.88-.36-5.8.55-9.35Z" style="fill:#263238"></path><path d="M76.52,301.86c-1.26-.07-1,5.27-2,10.45-1.11,5.56-3.2,7.65-4.17,12.19-1.11,5.2-.93,7.61,1,11.09s9.32,7.59,13.33,3.49c3.26-3.35,3.63-7.48,3.66-12.81a117.87,117.87,0,0,1,.52-13.5c.48-3.94,1.69-7.43.62-8-.12.57-.25,1.3-.37,1.86s-.35,2.57-1.06,2.5a7.51,7.51,0,0,1,.08-1.5,1.71,1.71,0,0,0-.27-1.33,6.08,6.08,0,0,0-2-1c-1.23-.37-3.43-.84-4.69-1.11-.62-.13-1.25-.23-1.88-.31a5.79,5.79,0,0,0-1.61,0,1,1,0,0,0-.72.45,1.52,1.52,0,0,0-.1.6,3.84,3.84,0,0,1-.22,1.07c-.06.15-.19.32-.37.26a.32.32,0,0,1-.19-.34c0-.64.15-1.1.23-1.84,0-.34.13-.8.16-1.14S76.48,302.2,76.52,301.86Z" style="fill:#455a64"></path><path d="M70.7,323c-.17.75-1.22,5.72.32,6.83s2.83-2.65,2.83-2.65,4.09-.55,9.82,2.44c-.35.78.4,3.6,2,3.24s2.61-6.09,2.62-6.16c-.06,5.1-.5,9.1-3.66,12.35-4,4.1-11.39,0-13.33-3.49s-2.13-5.89-1-11.09C70.43,324,70.56,323.5,70.7,323Z" style="fill:#37474f"></path><path d="M74.29,327.61c-.14,1.92-2.28,1-2.21-1.73s2.15-8.91,2.41-13.57c.43-6.39.77-10.52,2-10.45,0,.07,0,.13,0,.2l-.32,2.66a9.87,9.87,0,0,0-.14,1.14c-.26,3.9-.38,11.48-1,15A54.12,54.12,0,0,0,74.29,327.61Z" style="fill:#37474f"></path><path d="M83,329.51a54.34,54.34,0,0,0,1.6-6.57c.64-3.48,2.84-10.45,3.93-14.2a8.41,8.41,0,0,0,.57-2.13c.11-.52.23-1.18.34-1.74l0-.11c.77.43.48,3.45.06,5s-1,3.24-1.48,5.48c-1.35,4.42-1.54,11.07-2.41,13.61S82.47,331.33,83,329.51Z" style="fill:#37474f"></path><path d="M83.79,329.82a.51.51,0,0,1-.17-.07A17.69,17.69,0,0,0,74,327.62a.51.51,0,0,1-.55-.36.36.36,0,0,1,.36-.45,18.45,18.45,0,0,1,10.34,2.28.39.39,0,0,1,.16.57A.46.46,0,0,1,83.79,329.82Z" style="fill:#263238"></path><path d="M85.09,325.8l-.15-.06a21.8,21.8,0,0,0-10.83-2.38.53.53,0,0,1-.55-.38.39.39,0,0,1,.38-.44,22.53,22.53,0,0,1,11.44,2.52.4.4,0,0,1,.19.57A.45.45,0,0,1,85.09,325.8Z" style="fill:#263238"></path><path d="M74.65,319.45a.5.5,0,0,1-.38-.32.37.37,0,0,1,.32-.48c5.76-.94,11.2,2.28,11.43,2.42a.39.39,0,0,1,.16.57.48.48,0,0,1-.64.09c-.05,0-5.34-3.15-10.69-2.27A.66.66,0,0,1,74.65,319.45Z" style="fill:#263238"></path><path d="M75.19,315.77a.5.5,0,0,1-.37-.32.36.36,0,0,1,.31-.48,17,17,0,0,1,11.66,2.42.39.39,0,0,1,.12.58.5.5,0,0,1-.65,0,16.26,16.26,0,0,0-10.86-2.25Z" style="fill:#263238"></path><path d="M75.82,311.63a.47.47,0,0,1-.37-.31.37.37,0,0,1,.3-.49c6-1.14,11.51,2.4,11.74,2.55a.4.4,0,0,1,.14.58A.5.5,0,0,1,87,314s-5.42-3.45-10.94-2.38A.55.55,0,0,1,75.82,311.63Z" style="fill:#263238"></path><path d="M83.12,175.82c-2.26,29.39-.84,33.8-2.23,72.48-.25,2.32-2,6.29-3.31,17.75-1.38,12.08-1.35,29.17-1.35,29.17s8.5,4.63,15.57,2.43c0,0,7.73-24.74,11.24-39,3.58-14.57,7.45-35.08,7.45-35.08l3.91,20.35s-.6,8.72-.42,14.83c.21,7.11,5.24,33.47,5.24,33.47s8.38,5.28,15.77-.08c0,0,2.89-40.17,3.22-48.72.63-16.76-.5-49-.83-70.61Z" style="fill:#455a64"></path><path d="M103.27,252.19a19.9,19.9,0,0,0-20.13-3,94.24,94.24,0,0,1,10,1C99.48,251.19,103.27,252.19,103.27,252.19Zm-10.33,2.63a14.11,14.11,0,0,0,8-1.07s-9.27.05-16-2.5A15.33,15.33,0,0,0,92.94,254.82Z" style="fill:#ffbda7"></path><path d="M110.49,223.54l3.93-21.75s8.55-1.11,13-4.88c0,0-2.89,5-11,6.91l-3.88,19.79,1.85,20.28Z" style="fill:#37474f"></path><path d="M76,295.56c1.74,2.3,9.55,4.67,15.88,2.66l1.16-4.7c-4.78,1.41-13.14-.09-17-3.1Z" style="fill:#37474f"></path><path d="M119.18,292.91c2.11,2,10,3,15.92,0l.3-4.82c-4.46,2.19-12.75,2.66-17.07.34Z" style="fill:#37474f"></path><path d="M121.2,242.12c2.82,1.14,11.57,1.78,17,.41,0-.95,0-1.94.08-3C136.76,239.48,126.93,239.08,121.2,242.12Zm2.18,2.36s1.8,2.35,7.13,2.41,6.59-2.25,6.59-2.25C133.69,246.14,126.75,245.71,123.38,244.48Z" style="fill:#ffbda7"></path></g><g id="freepik--Top--inject-506"><g id="freepik--Arm--inject-506"><path d="M152.39,134.36c-5.65-12.86-6.88-14.32-16.74-15.6L135.2,140s5.15,10.34,9.08,17.42c4.07,7.32,4.23,8.75,9.71,10.63l7.1-14.43S158.7,148.72,152.39,134.36Z" style="fill:#ffa8a7"></path><path d="M133.54,117.6c10.16,1.16,12.33,2.62,15.61,8.57,2.91,5.29,9.53,20.67,9.53,20.67s-1.16,3-5.92,6.12a24.42,24.42,0,0,1-9.51,3.64l-8.95-16.94Z" style="fill:#37474f"></path></g><g id="freepik--Chest--inject-506"><path id="freepik--chest--inject-506" d="M146.09,129.47c-.31-3.67-2.39-8-5.84-9.38-4.95-2-11-2.48-16.29-2.36-5.61.13-9.69,1-15.92,2.11-1.46.25-4.09.92-5.69,1.4a10.81,10.81,0,0,0-5,3.93c-3.34,4.18-5.33,9.88-7,15-3.27,10.12-6.72,20-8,30.56-.28,2.2-1.25,14.73-.71,16.88.43,1.72,4,3.55,5.49,4.36,4.11,2.2,8.83,3,13.42,3.42,12.81,1.11,26.1-1.13,35.76-10.1a4.74,4.74,0,0,0,1.75-2.27c.12-.65,0-4.5-.09-5.15a101.1,101.1,0,0,1,.49-20.47C140.58,150.86,146.79,137.9,146.09,129.47Z" style="fill:#263238"></path></g><g id="freepik--Head--inject-506"><path d="M144.12,94.57a7,7,0,0,1-1.48,3.72,16.55,16.55,0,0,1-3.39,2.47,80.26,80.26,0,0,1-8.19,4.61c-4.15,2.07-8.41,3.94-12.73,5.61l-.51.2v-.05a16.2,16.2,0,0,0-1.64-3.82,27,27,0,0,1-2.17-4.25,26.89,26.89,0,0,1-2.39-9c-.34-4.79,1.2-9.86,4.94-13.07a21.34,21.34,0,0,1,13.29-5.18c4.28-.07,8.31-.09,12.49-1.24a4.13,4.13,0,0,1-1.45,3.18,9.18,9.18,0,0,1,3.57.46,2.88,2.88,0,0,1,1.73,1.22c.51,1,0,2.17-.59,3.14A5.08,5.08,0,0,1,149.4,84a3.29,3.29,0,0,1,1.08,2.78,4.84,4.84,0,0,1-1.9,2.6,6.64,6.64,0,0,1-2.91,1.49,1.43,1.43,0,0,0-1.22,1.38C144.32,93,144.24,93.81,144.12,94.57Z" style="fill:#ffbda7"></path><path d="M114.47,106.56c2.67,1,3.72-.64,3.72-.64l-3.57,13.54c4.23,7.59,20.23,8.14,16.46,2.23l1.62-4.83a46.06,46.06,0,0,0,5.54.12c3.28-.31,5.28-2.32,6.28-5.52,1.56-5,2.27-18.42,1.18-23.07-3.09-2.88-14-4.28-21.39-.48-.2,6-.73,6.89-2.46,8,0,2.89-.84,3.89-1.24,4.18-1.17.84-1.43-1.57-2.66-2.72a4,4,0,0,0-6,1.09C110.14,101.47,111.81,105.53,114.47,106.56Z" style="fill:#ffa8a7"></path><path d="M132.37,97.55a1.47,1.47,0,1,1-1.27-1.71A1.5,1.5,0,0,1,132.37,97.55Z" style="fill:#263238"></path><path d="M131.08,93.09l-3.34,1.32a1.89,1.89,0,0,1,1-2.39A1.75,1.75,0,0,1,131.08,93.09Z" style="fill:#37474f"></path><path d="M144.15,95.24,141,93.52a1.74,1.74,0,0,1,2.4-.78A1.91,1.91,0,0,1,144.15,95.24Z" style="fill:#37474f"></path><path d="M143.36,98.24a1.47,1.47,0,1,1-1.27-1.7A1.5,1.5,0,0,1,143.36,98.24Z" style="fill:#263238"></path><path d="M130.44,106.15l5.22,1.66a2.69,2.69,0,0,1-3.39,1.87A2.87,2.87,0,0,1,130.44,106.15Z" style="fill:#b16668"></path><path d="M131,107.08a3,3,0,0,0-.66-.06,2.84,2.84,0,0,0,1.93,2.66,2.6,2.6,0,0,0,.87.11A2.51,2.51,0,0,0,131,107.08Z" style="fill:#f28f8f"></path><path d="M132.7,116.86a15.54,15.54,0,0,1-8.92-3.07,9.69,9.69,0,0,1-3.41-5.58c.36,3.71,1.29,6,3,7.43a13,13,0,0,0,8.63,3.41Z" style="fill:#f28f8f"></path><path d="M148.25,93.56l-.68-.11a19.81,19.81,0,0,0-6.87,0c-2.24.6-3.07,1.33-4.27,1.29s-2.06-.84-4.35-1.61a22.57,22.57,0,0,0-7.31-.48l-.74.05a1.23,1.23,0,0,0-.9,1.21,2.57,2.57,0,0,0,.6,1.46,1.77,1.77,0,0,1,.19.59,24.27,24.27,0,0,0,.61,4,4.22,4.22,0,0,0,4.33,2.93,5.19,5.19,0,0,0,5.21-2.77c.87-1.48.83-3.62,2.22-3.56a.59.59,0,0,1,.13,0,.25.25,0,0,1,.12,0c1,.28.74,2.22,1.28,3.65a5.44,5.44,0,0,0,.88,1.57,4.47,4.47,0,0,0,3.58,1.54,4.41,4.41,0,0,0,4.45-2.59,24.92,24.92,0,0,0,1.14-4,1.46,1.46,0,0,1,.3-.51,2.73,2.73,0,0,0,.74-1.44A1.17,1.17,0,0,0,148.25,93.56ZM133.4,98.65a4.67,4.67,0,0,1-1.2,2.06,4.35,4.35,0,0,1-3.37,1.08,3.53,3.53,0,0,1-3-1.65,5.71,5.71,0,0,1-.71-2.24c-.15-1.06-.28-3.13.28-3.58s1.95-.88,4.17-.57l.24,0a8.73,8.73,0,0,1,3.16,1.13,1.83,1.83,0,0,1,.64.57C134,96.14,133.75,97.49,133.4,98.65Zm13.1,0a4.72,4.72,0,0,1-2.36,3.29,3.9,3.9,0,0,1-1.69.3,3.49,3.49,0,0,1-3.24-1.69,4.84,4.84,0,0,1-.55-1.74,5.14,5.14,0,0,1,.31-3.18c.46-.62,2.17-1.27,3.77-1.41a6.51,6.51,0,0,1,3.5.47,1.86,1.86,0,0,1,.53.38C147.22,95.58,146.8,97.63,146.5,98.68Z" style="fill:#263238"></path><path d="M133.4,98.65a4.67,4.67,0,0,1-1.2,2.06,4.35,4.35,0,0,1-3.37,1.08,3.53,3.53,0,0,1-3-1.65,5.71,5.71,0,0,1-.71-2.24c-.15-1.06-.28-3.13.28-3.58s1.95-.88,4.17-.57l.24,0a8.73,8.73,0,0,1,3.16,1.13,1.83,1.83,0,0,1,.64.57C134,96.14,133.75,97.49,133.4,98.65Z" style="fill:#455a64"></path><path d="M132.94,94.9a8.73,8.73,0,0,0-3.16-1.13l-.24,0a8,8,0,0,0-.8-.08,11.65,11.65,0,0,0,.21,1.51,3.24,3.24,0,0,1-.11,1.24.91.91,0,0,1-.43.6,1,1,0,0,1-.75-.06l-2.43-.86L125,96a13,13,0,0,0,.12,1.88c0,.23.08.47.13.7a1.8,1.8,0,0,1,1.38.12c.61.3,1.1.8,1.71,1.08a2.75,2.75,0,0,0,3.8-1.7c.1-.34.17-.74.48-.91s.72,0,1.07.14h.05a3,3,0,0,0-.13-1.87A1.83,1.83,0,0,0,132.94,94.9Z" style="fill:#fff;opacity:0.2"></path><path d="M146.5,98.68a4.72,4.72,0,0,1-2.36,3.29,3.9,3.9,0,0,1-1.69.3,3.49,3.49,0,0,1-3.24-1.69,4.84,4.84,0,0,1-.55-1.74,5.14,5.14,0,0,1,.31-3.18c.46-.62,2.17-1.27,3.77-1.41a6.51,6.51,0,0,1,3.5.47,1.86,1.86,0,0,1,.53.38C147.22,95.58,146.8,97.63,146.5,98.68Z" style="fill:#455a64"></path><path d="M146.24,94.72a5.07,5.07,0,0,0-1.87-.48c0,.12-.07.24-.1.36a4.63,4.63,0,0,1-.34,1.4,1.58,1.58,0,0,1-1.45.82,7.55,7.55,0,0,1-1.12-.26,1.18,1.18,0,0,0-1.08.21c-.62.63.17,1.93-.5,2.5a1,1,0,0,1-1,.07l0,0a4.52,4.52,0,0,0,.46,1.26,3.34,3.34,0,0,0,.76.89,2.26,2.26,0,0,0,1.45.11A2.3,2.3,0,0,0,143,100a4.68,4.68,0,0,1,.17-.53,1.32,1.32,0,0,1,1.11-.61,6.42,6.42,0,0,1,1.3.16,5.24,5.24,0,0,0,.79,0c0-.15.1-.3.13-.42.3-1.05.72-3.1.27-3.58A1.86,1.86,0,0,0,146.24,94.72Z" style="fill:#fff;opacity:0.2"></path><path d="M123.36,94,118,97.32a4.93,4.93,0,0,1,1.1,1.63l5.25-3.19Z" style="fill:#263238"></path><path d="M135.9,96.59l-.24,8.73,4.94-1.14-4.13-7.63A1.33,1.33,0,0,0,135.9,96.59Z" style="fill:#f28f8f"></path></g><path d="M131.75,119.69s4.5,4.45,4.27,14.55-2.36,17.58-3.14,29-.39,28.66-.39,28.66a20.26,20.26,0,0,0,7.09-6.68s-.68-8.09-.87-15.18.19-11.07.87-13.79,5.15-11,6.56-19.23.24-11.66-1.6-14-3.75-4.25-12-5.66Z" style="fill:#C7A14A"></path><path d="M131.75,119.69s4.5,4.45,4.27,14.55-2.36,17.58-3.14,29-.39,28.66-.39,28.66a20.26,20.26,0,0,0,7.09-6.68s-.68-8.09-.87-15.18.19-11.07.87-13.79,5.15-11,6.56-19.23.24-11.66-1.6-14-3.75-4.25-12-5.66Z" style="fill:#fff;opacity:0.30000000000000004"></path><path d="M115.22,117.17c-1.13,5.17-.08,14.38-5.47,39.43-4.45,20.74-1.49,41.53-1.49,41.53s-16.42,2.38-27.37-7.19c0-9.91-.51-19.94,4.82-38.85s8.34-26,14.76-30.85Z" style="fill:#C7A14A"></path><path d="M115.22,117.17c-1.13,5.17-.08,14.38-5.47,39.43-4.45,20.74-1.49,41.53-1.49,41.53s-16.42,2.38-27.37-7.19c0-9.91-.51-19.94,4.82-38.85s8.34-26,14.76-30.85Z" style="fill:#fff;opacity:0.30000000000000004"></path><g id="freepik--Headphones--inject-506"><path d="M117.22,77.29c-3.07,1.38-5.42,3.19-6.57,5a9.67,9.67,0,0,0-1.3,7c.26,2.3,2.26,9.22,2.26,9.22l5-.41s-2.95-9.64-3.4-12.21c-.34-2-.26-3.16,1.19-4.82.84-1,2.07-2,5.23-3.21s4-1.34,4.64-1.16a22.33,22.33,0,0,1,4.93-.9s-.61-.72-3.32-.67A21.06,21.06,0,0,0,117.22,77.29Z" style="fill:#263238"></path><path d="M118.78,107.61a11.83,11.83,0,0,0,0-10.7A5,5,0,0,0,117,95a3.1,3.1,0,0,0-1.53-.42h-1.8a4,4,0,0,0-3.29,2.33,11.83,11.83,0,0,0,0,10.7,5,5,0,0,0,1.79,1.91,3,3,0,0,0,1.54.42h1.78A4,4,0,0,0,118.78,107.61Z" style="fill:#37474f"></path><path d="M112.16,109.52a5,5,0,0,1-1.79-1.91,11.83,11.83,0,0,1,0-10.7C111.6,94.77,113.5,94,115.2,95A5.19,5.19,0,0,1,117,96.91a11.86,11.86,0,0,1,0,10.7C115.76,109.75,113.86,110.5,112.16,109.52Z" style="fill:#263238"></path><path d="M116.66,107.42a11.41,11.41,0,0,0,0-10.32,3.64,3.64,0,0,0-3-2.14h-.89a3.61,3.61,0,0,0-3,2.14,11.41,11.41,0,0,0,0,10.32,3.61,3.61,0,0,0,3,2.14h.89A3.64,3.64,0,0,0,116.66,107.42Z" style="fill:#f0f0f0"></path><path d="M115.76,97.1a11.41,11.41,0,0,1,0,10.32c-1.65,2.85-4.32,2.85-6,0a11.41,11.41,0,0,1,0-10.32C111.44,94.25,114.11,94.25,115.76,97.1Z" style="fill:#e0e0e0"></path><path d="M115.77,107.42a11.41,11.41,0,0,0,0-10.32,3.61,3.61,0,0,0-3-2.14c-.3,0-.86,0-1.16,0a3.61,3.61,0,0,0-3,2.14,11.41,11.41,0,0,0,0,10.32,3.62,3.62,0,0,0,3,2.13l1.17,0A3.65,3.65,0,0,0,115.77,107.42Z" style="fill:#C7A14A"></path><path d="M114.6,97.14a11.41,11.41,0,0,1,0,10.32c-1.65,2.85-4.31,2.85-6,0a11.41,11.41,0,0,1,0-10.32C110.29,94.29,113,94.29,114.6,97.14Z" style="opacity:0.25"></path><path d="M112.52,99.69a6,6,0,0,1,0,5.42c-.86,1.5-2.26,1.5-3.13,0a6,6,0,0,1,0-5.42C110.25,98.19,111.65,98.19,112.52,99.69Z" style="fill:#263238"></path><path d="M113,101.81l-2.18.59V98.57a1.9,1.9,0,0,1,1.57,1.12A5.35,5.35,0,0,1,113,101.81Z" style="fill:#455a64"></path><path d="M112.38,105.11a1.9,1.9,0,0,1-1.56,1.12V102.4l2.18-.59A5.74,5.74,0,0,1,112.38,105.11Z" style="fill:#37474f"></path><path d="M110.82,106.23a1.9,1.9,0,0,1-1.57-1.12,5.15,5.15,0,0,1-.62-2.12l2.19-.59Z" style="fill:#455a64"></path><path d="M110.82,102.4l-2.19.59a5.74,5.74,0,0,1,.62-3.3,1.9,1.9,0,0,1,1.56-1.12Z" style="fill:#37474f"></path></g></g></g><g id="freepik--Table--inject-506"><polygon points="119.22 281.37 259.03 200.67 259.03 290.43 119.22 371.13 119.22 281.37" style="fill:#37474f"></polygon><polygon points="119.22 281.37 59.45 246.87 59.45 336.63 119.22 371.13 119.22 281.37" style="fill:#263238"></polygon><polygon points="119.22 303.42 259.03 222.71 259.03 200.67 119.22 281.37 59.45 246.87 59.45 268.91 119.22 303.42" style="opacity:0.15"></polygon><polygon points="39.43 254.64 205.68 158.6 272.64 197.18 106.39 293.21 39.43 254.64" style="fill:#C7A14A"></polygon><polygon points="39.43 254.64 205.68 158.6 272.64 197.18 106.39 293.21 39.43 254.64" style="fill:#fff;opacity:0.9"></polygon><g style="opacity:0.2"><path d="M205.68,159.32l65.71,37.86-165,95.31L40.68,254.64l165-95.32m0-.72-166.25,96,67,38.57,166.25-96-67-38.58Z" style="fill:#C7A14A"></path></g><polygon points="106.39 298.7 106.39 293.21 39.43 254.64 39.43 260.12 106.39 298.7" style="fill:#C7A14A"></polygon><polygon points="106.39 298.7 106.39 293.21 39.43 254.64 39.43 260.12 106.39 298.7" style="fill:#fff;opacity:0.5"></polygon><polygon points="272.64 197.18 272.64 202.66 106.39 298.7 106.39 293.21 272.64 197.18" style="fill:#C7A14A"></polygon><polygon points="272.64 197.18 272.64 202.66 106.39 298.7 106.39 293.21 272.64 197.18" style="fill:#fff;opacity:0.7000000000000001"></polygon><path d="M131.09,348.55h0c-.61.36-1.1,0-1.1-.83V308.94a2.64,2.64,0,0,1,1.1-2.11h0c.61-.35,1.1,0,1.1.83v38.79A2.62,2.62,0,0,1,131.09,348.55Z" style="fill:#263238"></path><path d="M135.73,345.87h0c-.61.36-1.1,0-1.1-.83V306.26a2.64,2.64,0,0,1,1.1-2.11h0c.61-.35,1.11,0,1.11.83v38.78A2.64,2.64,0,0,1,135.73,345.87Z" style="fill:#263238"></path><path d="M140.38,343.19h0c-.61.36-1.11,0-1.11-.83V303.58a2.65,2.65,0,0,1,1.11-2.11h0c.61-.35,1.1,0,1.1.83v38.78A2.63,2.63,0,0,1,140.38,343.19Z" style="fill:#263238"></path><path d="M145,340.51h0c-.61.36-1.1,0-1.1-.83V300.9a2.64,2.64,0,0,1,1.1-2.11h0c.61-.35,1.1,0,1.1.83V338.4A2.63,2.63,0,0,1,145,340.51Z" style="fill:#263238"></path><path d="M149.66,337.83h0c-.61.35-1.1,0-1.1-.83V298.22a2.63,2.63,0,0,1,1.1-2.11h0c.61-.35,1.11,0,1.11.83v38.78A2.64,2.64,0,0,1,149.66,337.83Z" style="fill:#263238"></path><path d="M154.31,335.15h0c-.61.35-1.11,0-1.11-.83V295.54a2.64,2.64,0,0,1,1.11-2.11h0c.6-.35,1.1,0,1.1.83V333A2.65,2.65,0,0,1,154.31,335.15Z" style="fill:#263238"></path><path d="M159,332.47h0c-.61.35-1.11,0-1.11-.83V292.86a2.64,2.64,0,0,1,1.11-2.11h0c.61-.36,1.1,0,1.1.83v38.78A2.63,2.63,0,0,1,159,332.47Z" style="fill:#263238"></path><path d="M163.59,329.79h0c-.61.35-1.1,0-1.1-.83V290.18a2.63,2.63,0,0,1,1.1-2.11h0c.61-.36,1.1,0,1.1.83v38.78A2.64,2.64,0,0,1,163.59,329.79Z" style="fill:#263238"></path><path d="M168.23,327.11h0c-.61.35-1.1,0-1.1-.83V287.5a2.63,2.63,0,0,1,1.1-2.11h0c.61-.36,1.11,0,1.11.83V325A2.65,2.65,0,0,1,168.23,327.11Z" style="fill:#263238"></path><path d="M172.88,324.43h0c-.61.35-1.11,0-1.11-.83V284.81a2.67,2.67,0,0,1,1.11-2.11h0c.61-.35,1.1,0,1.1.84v38.78A2.64,2.64,0,0,1,172.88,324.43Z" style="fill:#263238"></path><path d="M177.52,321.75h0c-.61.35-1.1,0-1.1-.84V282.13a2.66,2.66,0,0,1,1.1-2.11h0c.61-.35,1.1,0,1.1.84v38.78A2.64,2.64,0,0,1,177.52,321.75Z" style="fill:#263238"></path><path d="M182.16,319.07h0c-.61.35-1.1,0-1.1-.84V279.45a2.66,2.66,0,0,1,1.1-2.11h0c.61-.35,1.11,0,1.11.84V317A2.65,2.65,0,0,1,182.16,319.07Z" style="fill:#263238"></path><path d="M186.81,316.39h0c-.61.35-1.11,0-1.11-.84V276.77a2.67,2.67,0,0,1,1.11-2.11h0c.6-.35,1.1,0,1.1.84v38.78A2.67,2.67,0,0,1,186.81,316.39Z" style="fill:#263238"></path><path d="M191.45,313.71h0c-.61.35-1.11,0-1.11-.84V274.09a2.65,2.65,0,0,1,1.11-2.11h0c.61-.35,1.1,0,1.1.84V311.6A2.64,2.64,0,0,1,191.45,313.71Z" style="fill:#263238"></path><path d="M196.09,311h0c-.61.35-1.1,0-1.1-.84V271.41a2.64,2.64,0,0,1,1.1-2.11h0c.61-.35,1.1,0,1.1.84v38.78A2.64,2.64,0,0,1,196.09,311Z" style="fill:#263238"></path><path d="M200.73,308.35h0c-.61.35-1.1,0-1.1-.84V268.73a2.64,2.64,0,0,1,1.1-2.11h0c.61-.35,1.11,0,1.11.84v38.78A2.67,2.67,0,0,1,200.73,308.35Z" style="fill:#263238"></path><path d="M205.38,305.67h0c-.61.35-1.11,0-1.11-.84V266.05a2.65,2.65,0,0,1,1.11-2.11h0c.61-.35,1.1,0,1.1.84v38.78A2.66,2.66,0,0,1,205.38,305.67Z" style="fill:#263238"></path><path d="M210,303h0c-.61.35-1.1,0-1.1-.84V263.37a2.64,2.64,0,0,1,1.1-2.11h0c.61-.35,1.1,0,1.1.84v38.78A2.66,2.66,0,0,1,210,303Z" style="fill:#263238"></path><path d="M214.66,300.3h0c-.61.36-1.1,0-1.1-.83V260.69a2.64,2.64,0,0,1,1.1-2.11h0c.61-.35,1.11,0,1.11.83V298.2A2.63,2.63,0,0,1,214.66,300.3Z" style="fill:#263238"></path><path d="M219.31,297.62h0c-.61.36-1.11,0-1.11-.83V258a2.65,2.65,0,0,1,1.11-2.11h0c.6-.35,1.1,0,1.1.83v38.78A2.65,2.65,0,0,1,219.31,297.62Z" style="fill:#263238"></path><path d="M224,294.94h0c-.61.36-1.11,0-1.11-.83V255.33a2.65,2.65,0,0,1,1.11-2.11h0c.61-.35,1.1,0,1.1.83v38.78A2.63,2.63,0,0,1,224,294.94Z" style="fill:#263238"></path><path d="M228.59,292.26h0c-.61.36-1.1,0-1.1-.83V252.65a2.64,2.64,0,0,1,1.1-2.11h0c.61-.35,1.1,0,1.1.83v38.78A2.63,2.63,0,0,1,228.59,292.26Z" style="fill:#263238"></path><path d="M233.23,289.58h0c-.61.35-1.1,0-1.1-.83V250a2.63,2.63,0,0,1,1.1-2.11h0c.61-.35,1.11,0,1.11.83v38.78A2.64,2.64,0,0,1,233.23,289.58Z" style="fill:#263238"></path><path d="M237.88,286.9h0c-.61.35-1.11,0-1.11-.83V247.29a2.64,2.64,0,0,1,1.11-2.11h0c.61-.35,1.1,0,1.1.83v38.78A2.63,2.63,0,0,1,237.88,286.9Z" style="fill:#263238"></path><path d="M242.52,284.22h0c-.61.35-1.1,0-1.1-.83V244.61a2.63,2.63,0,0,1,1.1-2.11h0c.61-.36,1.1,0,1.1.83v38.78A2.63,2.63,0,0,1,242.52,284.22Z" style="fill:#263238"></path><path d="M247.16,281.54h0c-.61.35-1.1,0-1.1-.83V241.93a2.63,2.63,0,0,1,1.1-2.11h0c.61-.36,1.11,0,1.11.83v38.78A2.65,2.65,0,0,1,247.16,281.54Z" style="fill:#263238"></path><path d="M131.09,331.06h0c-.61.35-1.1,0-1.1-.84v-4.35a2.66,2.66,0,0,1,1.1-2.11h0c.61-.35,1.1,0,1.1.84V329A2.64,2.64,0,0,1,131.09,331.06Z" style="fill:#455a64"></path><path d="M135.73,337h0c-.61.36-1.1,0-1.1-.83V314.61a2.63,2.63,0,0,1,1.1-2.11h0c.61-.36,1.11,0,1.11.83v21.53A2.63,2.63,0,0,1,135.73,337Z" style="fill:#455a64"></path><path d="M140.38,331.33h0c-.61.36-1.11,0-1.11-.83V314.88a2.64,2.64,0,0,1,1.11-2.11h0c.61-.36,1.1,0,1.1.83v15.62A2.63,2.63,0,0,1,140.38,331.33Z" style="fill:#455a64"></path><path d="M145,324h0c-.61.35-1.1,0-1.1-.83v-6.32a2.63,2.63,0,0,1,1.1-2.11h0c.61-.36,1.1,0,1.1.83v6.32A2.63,2.63,0,0,1,145,324Z" style="fill:#455a64"></path><path d="M149.66,333.15h0c-.61.35-1.1,0-1.1-.84v-30a2.64,2.64,0,0,1,1.1-2.11h0c.61-.35,1.11,0,1.11.84v30A2.65,2.65,0,0,1,149.66,333.15Z" style="fill:#455a64"></path><path d="M154.31,324.43h0c-.61.36-1.11,0-1.11-.83V305.69a2.65,2.65,0,0,1,1.11-2.11h0c.6-.35,1.1,0,1.1.84v17.9A2.65,2.65,0,0,1,154.31,324.43Z" style="fill:#455a64"></path><path d="M159,315.13h0c-.61.35-1.11,0-1.11-.83v-4.67a2.67,2.67,0,0,1,1.11-2.11h0c.61-.35,1.1,0,1.1.84V313A2.63,2.63,0,0,1,159,315.13Z" style="fill:#455a64"></path><path d="M163.59,314.36h0c-.61.36-1.1,0-1.1-.83V305a2.64,2.64,0,0,1,1.1-2.11h0c.61-.35,1.1,0,1.1.84v8.48A2.63,2.63,0,0,1,163.59,314.36Z" style="fill:#455a64"></path><path d="M168.23,316.56h0c-.61.35-1.1,0-1.1-.84V297.49a2.63,2.63,0,0,1,1.1-2.11h0c.61-.36,1.11,0,1.11.83v18.24A2.65,2.65,0,0,1,168.23,316.56Z" style="fill:#455a64"></path><path d="M172.88,309h0c-.61.35-1.11,0-1.11-.84v-8.38a2.67,2.67,0,0,1,1.11-2.11h0c.61-.35,1.1,0,1.1.84v8.38A2.64,2.64,0,0,1,172.88,309Z" style="fill:#455a64"></path><path d="M177.52,304.25h0c-.61.35-1.1,0-1.1-.83v-4.35a2.64,2.64,0,0,1,1.1-2.11h0c.61-.35,1.1,0,1.1.83v4.35A2.63,2.63,0,0,1,177.52,304.25Z" style="fill:#455a64"></path><path d="M182.16,306.62h0c-.61.36-1.1,0-1.1-.83V291.34a2.63,2.63,0,0,1,1.1-2.11h0c.61-.36,1.11,0,1.11.83v14.45A2.64,2.64,0,0,1,182.16,306.62Z" style="fill:#455a64"></path><path d="M186.81,307.9h0c-.61.36-1.11,0-1.11-.83V284.69a2.63,2.63,0,0,1,1.11-2.1h0c.6-.36,1.1,0,1.1.83v22.37A2.65,2.65,0,0,1,186.81,307.9Z" style="fill:#455a64"></path><path d="M191.45,304.89h0c-.61.35-1.11,0-1.11-.83V282.35a2.64,2.64,0,0,1,1.11-2.11h0c.61-.35,1.1,0,1.1.83v21.71A2.64,2.64,0,0,1,191.45,304.89Z" style="fill:#455a64"></path><path d="M196.09,293.77h0c-.61.35-1.1,0-1.1-.83V288.1a2.62,2.62,0,0,1,1.1-2.1h0c.61-.36,1.1,0,1.1.83v4.83A2.63,2.63,0,0,1,196.09,293.77Z" style="fill:#455a64"></path><path d="M200.73,294.84h0c-.61.35-1.1,0-1.1-.83V281.68a2.63,2.63,0,0,1,1.1-2.11h0c.61-.36,1.11,0,1.11.83v12.33A2.65,2.65,0,0,1,200.73,294.84Z" style="fill:#455a64"></path><path d="M205.38,301.41h0c-.61.35-1.11,0-1.11-.84V269.75a2.65,2.65,0,0,1,1.11-2.11h0c.61-.35,1.1,0,1.1.83V299.3A2.66,2.66,0,0,1,205.38,301.41Z" style="fill:#455a64"></path><path d="M210,292.43h0c-.61.35-1.1,0-1.1-.83V273.36a2.64,2.64,0,0,1,1.1-2.11h0c.61-.35,1.1,0,1.1.84v18.23A2.63,2.63,0,0,1,210,292.43Z" style="fill:#455a64"></path><path d="M214.66,285.3h0c-.61.35-1.1,0-1.1-.83v-9.34a2.64,2.64,0,0,1,1.1-2.11h0c.61-.35,1.11,0,1.11.83v9.34A2.64,2.64,0,0,1,214.66,285.3Z" style="fill:#455a64"></path><path d="M219.31,280.13h0c-.61.35-1.11,0-1.11-.84v-4.35a2.67,2.67,0,0,1,1.11-2.11h0c.6-.35,1.1,0,1.1.84V278A2.67,2.67,0,0,1,219.31,280.13Z" style="fill:#455a64"></path><path d="M224,281.72h0c-.61.35-1.11,0-1.11-.84V268a2.65,2.65,0,0,1,1.11-2.11h0c.61-.35,1.1,0,1.1.84v12.89A2.64,2.64,0,0,1,224,281.72Z" style="fill:#455a64"></path><path d="M228.59,280.72h0c-.61.35-1.1,0-1.1-.83V263.63a2.63,2.63,0,0,1,1.1-2.11h0c.61-.35,1.1,0,1.1.83v16.26A2.64,2.64,0,0,1,228.59,280.72Z" style="fill:#455a64"></path><path d="M233.23,285.47h0c-.61.35-1.1,0-1.1-.83V253.52a2.63,2.63,0,0,1,1.1-2.11h0c.61-.36,1.11,0,1.11.83v31.12A2.64,2.64,0,0,1,233.23,285.47Z" style="fill:#455a64"></path><path d="M237.88,277.2h0c-.61.35-1.11,0-1.11-.84V256.43a2.64,2.64,0,0,1,1.11-2.11h0c.61-.35,1.1,0,1.1.83v19.94A2.64,2.64,0,0,1,237.88,277.2Z" style="fill:#455a64"></path><path d="M242.52,269.64h0c-.61.36-1.1,0-1.1-.83V258.62a2.64,2.64,0,0,1,1.1-2.11h0c.61-.35,1.1,0,1.1.84v10.18A2.63,2.63,0,0,1,242.52,269.64Z" style="fill:#455a64"></path><path d="M247.16,264h0c-.61.36-1.1,0-1.1-.83v-4.35a2.64,2.64,0,0,1,1.1-2.11h0c.61-.35,1.11,0,1.11.84v4.34A2.64,2.64,0,0,1,247.16,264Z" style="fill:#455a64"></path></g><g id="freepik--Controller--inject-506"><path d="M228.18,215.11a.52.52,0,0,0,0-.9L183.8,188.58a2.62,2.62,0,0,0-2.6,0L84,244.56a.58.58,0,0,0,0,1l44.58,25.74a2,2,0,0,0,2,0Z" style="opacity:0.2"></path><polygon points="130.12 266.61 137.55 262.31 95.37 237.96 87.94 242.25 130.12 266.61" style="fill:#455a64"></polygon><polygon points="137.55 262.31 137.55 264.54 130.12 268.84 130.12 266.61 137.55 262.31" style="fill:#37474f"></polygon><polygon points="87.94 242.25 87.94 244.48 130.12 268.84 130.12 266.61 87.94 242.25" style="fill:#263238"></polygon><polygon points="216.79 216.57 224.22 212.28 182.04 187.92 174.61 192.22 216.79 216.57" style="fill:#455a64"></polygon><polygon points="224.22 212.28 224.22 214.51 216.79 218.81 216.79 216.57 224.22 212.28" style="fill:#37474f"></polygon><polygon points="174.61 192.22 174.61 194.45 216.79 218.81 216.79 216.57 174.61 192.22" style="fill:#263238"></polygon><polygon points="130.12 255.37 87.94 231.01 182.03 176.69 224.22 201.04 130.12 255.37" style="fill:#455a64"></polygon><polygon points="87.94 231.01 87.94 242.25 130.12 266.61 130.12 255.37 87.94 231.01" style="fill:#263238"></polygon><polygon points="224.22 201.04 224.22 212.28 130.12 266.61 130.12 255.37 224.22 201.04" style="fill:#37474f"></polygon><path d="M167.24,238.05a.21.21,0,0,1-.11-.39l22.72-13.12a.21.21,0,1,1,.21.37L167.34,238A.19.19,0,0,1,167.24,238.05Z" style="fill:#C7A14A"></path><path d="M167.24,239.93a.21.21,0,0,1-.11-.39l22.72-13.12a.21.21,0,0,1,.29.08.21.21,0,0,1-.08.28L167.34,239.9A.19.19,0,0,1,167.24,239.93Z" style="fill:#C7A14A"></path><path d="M167.24,241.8a.19.19,0,0,1-.18-.1.21.21,0,0,1,.07-.29l22.72-13.11a.21.21,0,0,1,.29.07.22.22,0,0,1-.08.29l-22.72,13.12Z" style="fill:#C7A14A"></path><path d="M138.46,248.37a.19.19,0,0,1-.1,0L136,247a.21.21,0,0,1-.11-.19.21.21,0,0,1,.11-.18l5.11-2.9a.2.2,0,0,1,.21,0l2.3,1.3a.21.21,0,0,1,.11.18.19.19,0,0,1-.11.18l-5.07,2.93A.23.23,0,0,1,138.46,248.37Zm-1.91-1.54,1.91,1.09,4.66-2.69-1.88-1.06Z" style="fill:#C7A14A"></path><path d="M148.2,242.75a.23.23,0,0,1-.11,0l-2.34-1.32a.23.23,0,0,1-.1-.19.22.22,0,0,1,.1-.18l5.12-2.9a.18.18,0,0,1,.2,0l2.3,1.3a.21.21,0,0,1,.11.18.23.23,0,0,1-.1.19l-5.08,2.92A.19.19,0,0,1,148.2,242.75Zm-1.92-1.54,1.92,1.09,4.65-2.69L151,238.55Z" style="fill:#C7A14A"></path><path d="M157.93,237.13a.17.17,0,0,1-.1,0l-2.34-1.32a.21.21,0,0,1-.11-.19.21.21,0,0,1,.11-.18l5.11-2.9a.2.2,0,0,1,.21,0l2.3,1.3a.22.22,0,0,1,.1.18.23.23,0,0,1-.1.19L158,237.1A.17.17,0,0,1,157.93,237.13ZM156,235.59l1.92,1.09,4.65-2.69-1.88-1.06Z" style="fill:#C7A14A"></path><path d="M102.77,227.77a.19.19,0,0,1-.1,0l-2.34-1.33a.21.21,0,0,1-.11-.18.19.19,0,0,1,.11-.18l5.11-2.91a.2.2,0,0,1,.21,0l2.3,1.3a.24.24,0,0,1,.11.19.21.21,0,0,1-.11.18l-5.07,2.93A.23.23,0,0,1,102.77,227.77Zm-1.91-1.54,1.91,1.08,4.65-2.68-1.87-1.07Z" style="fill:#C7A14A"></path><path d="M112.51,222.15a.2.2,0,0,1-.11,0l-2.34-1.33a.22.22,0,0,1-.1-.18.2.2,0,0,1,.1-.18l5.12-2.91a.18.18,0,0,1,.2,0l2.3,1.3a.21.21,0,0,1,.11.19.21.21,0,0,1-.11.18l-5.07,2.93A.19.19,0,0,1,112.51,222.15Zm-1.92-1.54,1.91,1.08,4.66-2.68-1.88-1.07Z" style="fill:#C7A14A"></path><path d="M122.24,216.53a.17.17,0,0,1-.1,0l-2.34-1.33a.21.21,0,0,1-.11-.18.19.19,0,0,1,.11-.18l5.11-2.91a.2.2,0,0,1,.21,0l2.3,1.3a.23.23,0,0,1,.1.19.22.22,0,0,1-.1.18l-5.08,2.93A.19.19,0,0,1,122.24,216.53ZM120.32,215l1.92,1.08,4.65-2.68L125,212.32Z" style="fill:#C7A14A"></path><path d="M187.14,220.23a.23.23,0,0,1-.11,0l-2.34-1.32a.23.23,0,0,1-.1-.19.22.22,0,0,1,.1-.18l5.12-2.91a.26.26,0,0,1,.21,0l2.29,1.31a.21.21,0,0,1,.11.18.2.2,0,0,1-.1.18l-5.08,2.93A.19.19,0,0,1,187.14,220.23Zm-1.92-1.54,1.92,1.09,4.65-2.69L189.91,216Z" style="fill:#C7A14A"></path><path d="M196.87,214.61a.19.19,0,0,1-.1,0l-2.34-1.32a.21.21,0,0,1-.11-.19.21.21,0,0,1,.11-.18l5.11-2.91a.26.26,0,0,1,.21,0l2.3,1.31a.22.22,0,0,1,.1.18.18.18,0,0,1-.1.18L197,214.58A.23.23,0,0,1,196.87,214.61ZM195,213.07l1.92,1.09,4.65-2.69-1.87-1.06Z" style="fill:#C7A14A"></path><path d="M206.6,209a.19.19,0,0,1-.1,0l-2.34-1.32a.21.21,0,0,1,0-.37l5.12-2.9a.18.18,0,0,1,.2,0l2.3,1.3a.21.21,0,0,1,.11.18.19.19,0,0,1-.11.18L206.71,209A.2.2,0,0,1,206.6,209Zm-1.91-1.54,1.91,1.09,4.66-2.69-1.88-1.06Z" style="fill:#C7A14A"></path><path d="M151.45,199.62a.22.22,0,0,1-.11,0L149,198.27a.22.22,0,0,1-.1-.18.23.23,0,0,1,.1-.19l5.12-2.9a.18.18,0,0,1,.2,0l2.3,1.3a.21.21,0,0,1,.11.18.23.23,0,0,1-.1.19l-5.08,2.93Zm-1.92-1.53,1.92,1.08,4.65-2.68-1.88-1.07Z" style="fill:#C7A14A"></path><path d="M161.18,194a.16.16,0,0,1-.1,0l-2.34-1.33a.21.21,0,0,1-.11-.18.21.21,0,0,1,.11-.19l5.11-2.9a.2.2,0,0,1,.21,0l2.3,1.3a.22.22,0,0,1,.1.18.23.23,0,0,1-.1.19L161.28,194A.16.16,0,0,1,161.18,194Zm-1.92-1.53,1.92,1.08,4.65-2.68L164,189.8Z" style="fill:#C7A14A"></path><path d="M170.91,188.38a.18.18,0,0,1-.1,0L168.47,187a.23.23,0,0,1-.11-.18.19.19,0,0,1,.11-.18l5.12-2.91a.18.18,0,0,1,.2,0l2.3,1.3a.21.21,0,0,1,.11.19.21.21,0,0,1-.11.18L171,188.36A.2.2,0,0,1,170.91,188.38ZM169,186.85l1.91,1.08,4.66-2.68-1.88-1.07Z" style="fill:#C7A14A"></path><path d="M117.13,238.51c8.07,4.66,21.15,4.66,29.22,0s8.07-12.22,0-16.88-21.16-4.65-29.23,0S109.06,233.85,117.13,238.51Z" style="fill:#263238"></path><path d="M146.48,238.43l-4.09-9.29-4.85,2.56,2.26,9.35a24.94,24.94,0,0,0,6.55-2.54Z" style="fill:#37474f"></path><path d="M149.66,236l-4.82-8.74-1.32.54,4.29,9.76A14.61,14.61,0,0,0,149.66,236Z" style="fill:#37474f"></path><path d="M117.93,235.62c7.62,4.4,20,4.4,27.62,0s7.63-11.54,0-15.94-20-4.41-27.62,0S110.3,231.21,117.93,235.62Z" style="fill:#C7A14A"></path><g style="opacity:0.15"><path d="M142.39,229.14l-4.85,2.56,1.54,6.39a23.78,23.78,0,0,0,6.22-2.34Z" style="fill:#fff"></path><path d="M144.84,227.27l-1.32.54,3.12,7.11a13.91,13.91,0,0,0,1.68-1.34Z" style="fill:#fff"></path></g><path d="M118.88,232.82c7.1,4.1,18.62,4.1,25.72,0s7.1-10.75,0-14.85-18.62-4.1-25.73,0S111.77,228.72,118.88,232.82Z" style="fill:#263238"></path><path d="M119.69,232.08c6.66,3.69,17.44,3.69,24.09,0s6.66-9.68,0-13.37-17.44-3.69-24.09,0S113,228.39,119.69,232.08Z" style="fill:#37474f"></path><path d="M117.34,230.43l14.4-5L116,229A8.6,8.6,0,0,0,117.34,230.43Z" style="fill:#263238"></path><path d="M135.77,234.57l-4-9.17,1.2,9.42C133.89,234.78,134.84,234.69,135.77,234.57Z" style="fill:#263238"></path><path d="M148.71,226.08l-17-.68,16.51,2.29A6,6,0,0,0,148.71,226.08Z" style="fill:#263238"></path><path d="M138.08,216.62l-6.34,8.78,8.9-8.05A25.31,25.31,0,0,0,138.08,216.62Z" style="fill:#263238"></path><path d="M119.69,218.71c-.32.18-.61.37-.9.55l13,6.14-10.89-7.27C120.45,218.31,120.06,218.51,119.69,218.71Z" style="fill:#263238"></path><path d="M127.64,227.76a9,9,0,0,0,8.2,0c2.26-1.3,2.26-3.42,0-4.73a9,9,0,0,0-8.2,0C125.37,224.34,125.37,226.46,127.64,227.76Z" style="fill:#C7A14A"></path><path d="M129,227a6.1,6.1,0,0,0,5.52,0c1.52-.88,1.52-2.31,0-3.19a6.1,6.1,0,0,0-5.52,0C127.45,224.68,127.45,226.11,129,227Z" style="fill:#263238"></path><path d="M130.59,226.06a2.52,2.52,0,0,0,2.3,0,.7.7,0,0,0,0-1.33,2.52,2.52,0,0,0-2.3,0A.7.7,0,0,0,130.59,226.06Z" style="fill:#C7A14A"></path><path d="M165.66,210.48c8.07,4.66,21.16,4.66,29.23,0s8.07-12.21,0-16.87-21.16-4.66-29.23,0S157.59,205.82,165.66,210.48Z" style="fill:#263238"></path><path d="M195,210.41l-4.09-9.3-4.86,2.57,2.26,9.35a25,25,0,0,0,6.56-2.55Z" style="fill:#37474f"></path><path d="M198.2,208l-4.83-8.74-1.32.54,4.3,9.77A13.87,13.87,0,0,0,198.2,208Z" style="fill:#37474f"></path><path d="M166.46,207.59c7.63,4.4,20,4.4,27.63,0s7.63-11.55,0-16-20-4.4-27.63,0S158.84,203.19,166.46,207.59Z" style="fill:#C7A14A"></path><g style="opacity:0.15"><path d="M190.93,201.11l-4.86,2.57,1.55,6.39a24.22,24.22,0,0,0,6.21-2.35Z" style="fill:#fff"></path><path d="M193.37,199.24l-1.32.54,3.13,7.11a13.67,13.67,0,0,0,1.68-1.33Z" style="fill:#fff"></path></g><path d="M167.41,204.8c7.11,4.1,18.62,4.1,25.73,0s7.1-10.76,0-14.86-18.62-4.1-25.73,0S160.31,200.7,167.41,204.8Z" style="fill:#263238"></path><path d="M168.23,204.05c6.65,3.7,17.44,3.7,24.09,0s6.65-9.67,0-13.36-17.44-3.69-24.09,0S161.58,200.36,168.23,204.05Z" style="fill:#37474f"></path><path d="M165.87,202.41l14.41-5L164.52,201A10.56,10.56,0,0,0,165.87,202.41Z" style="fill:#263238"></path><path d="M184.31,206.54l-4-9.17,1.2,9.42C182.43,206.75,183.38,206.67,184.31,206.54Z" style="fill:#263238"></path><path d="M197.25,198.06l-17-.69,16.5,2.29A5.52,5.52,0,0,0,197.25,198.06Z" style="fill:#263238"></path><path d="M186.62,188.6l-6.34,8.77,8.9-8.05A22.93,22.93,0,0,0,186.62,188.6Z" style="fill:#263238"></path><path d="M168.23,190.69c-.32.17-.61.36-.9.55l12.95,6.13-10.89-7.26C169,190.29,168.6,190.48,168.23,190.69Z" style="fill:#263238"></path><path d="M176.17,199.74a9.07,9.07,0,0,0,8.21,0c2.26-1.31,2.26-3.43,0-4.74a9.13,9.13,0,0,0-8.21,0C173.91,196.31,173.91,198.43,176.17,199.74Z" style="fill:#C7A14A"></path><path d="M177.51,199a6.06,6.06,0,0,0,5.53,0c1.52-.88,1.52-2.3,0-3.18a6.12,6.12,0,0,0-5.53,0C176,196.66,176,198.08,177.51,199Z" style="fill:#263238"></path><path d="M179.12,198a2.61,2.61,0,0,0,2.31,0,.7.7,0,0,0,0-1.33,2.54,2.54,0,0,0-2.31,0A.7.7,0,0,0,179.12,198Z" style="fill:#C7A14A"></path><polygon points="187.46 184.79 210.17 197.91 211.24 197.29 188.53 184.18 187.46 184.79" style="fill:#263238"></polygon><polygon points="205.68 196.75 205.68 195.69 208.92 193.82 208.92 194.88 205.68 196.75" style="fill:#C7A14A"></polygon><polygon points="205.68 196.75 205.68 195.69 208.92 193.82 208.92 194.88 205.68 196.75" style="opacity:0.15"></polygon><polygon points="204.05 194.76 205.68 195.69 208.92 193.82 207.3 192.88 204.05 194.76" style="fill:#C7A14A"></polygon><polygon points="204.06 195.81 205.68 196.75 205.68 195.69 204.05 194.76 204.06 195.81" style="fill:#C7A14A"></polygon><polygon points="204.06 195.81 205.68 196.75 205.68 195.69 204.05 194.76 204.06 195.81" style="opacity:0.30000000000000004"></polygon><polygon points="188.53 184.18 188.53 185.41 187.46 184.79 188.53 184.18"></polygon><polygon points="136.61 210.41 159.32 223.52 160.39 222.91 137.68 209.79 136.61 210.41" style="fill:#263238"></polygon><polygon points="154.83 222.36 154.83 221.3 158.07 219.43 158.07 220.49 154.83 222.36" style="fill:#C7A14A"></polygon><polygon points="154.83 222.36 154.83 221.3 158.07 219.43 158.07 220.49 154.83 222.36" style="opacity:0.15"></polygon><polygon points="153.2 220.37 154.83 221.3 158.07 219.43 156.45 218.49 153.2 220.37" style="fill:#C7A14A"></polygon><polygon points="153.21 221.43 154.83 222.36 154.83 221.3 153.2 220.37 153.21 221.43" style="fill:#C7A14A"></polygon><polygon points="153.21 221.43 154.83 222.36 154.83 221.3 153.2 220.37 153.21 221.43" style="opacity:0.30000000000000004"></polygon><polygon points="137.68 209.79 137.68 211.02 136.61 210.41 137.68 209.79"></polygon><polygon points="139.86 208.53 162.57 221.65 163.63 221.03 140.92 207.92 139.86 208.53" style="fill:#263238"></polygon><polygon points="151.59 216.74 151.59 215.68 154.83 213.81 154.83 214.87 151.59 216.74" style="fill:#C7A14A"></polygon><polygon points="151.59 216.74 151.59 215.68 154.83 213.81 154.83 214.87 151.59 216.74" style="opacity:0.15"></polygon><polygon points="149.96 214.75 151.59 215.68 154.83 213.81 153.21 212.87 149.96 214.75" style="fill:#C7A14A"></polygon><polygon points="149.96 215.81 151.59 216.74 151.59 215.68 149.96 214.75 149.96 215.81" style="fill:#C7A14A"></polygon><polygon points="149.96 215.81 151.59 216.74 151.59 215.68 149.96 214.75 149.96 215.81" style="opacity:0.30000000000000004"></polygon><polygon points="140.92 207.92 140.92 209.15 139.86 208.53 140.92 207.92"></polygon><polygon points="143.1 206.66 165.81 219.77 166.88 219.16 144.16 206.04 143.1 206.66" style="fill:#263238"></polygon><polygon points="160.01 217.86 160.01 216.8 163.25 214.93 163.25 215.99 160.01 217.86" style="fill:#C7A14A"></polygon><polygon points="160.01 217.86 160.01 216.8 163.25 214.93 163.25 215.99 160.01 217.86" style="opacity:0.15"></polygon><polygon points="158.38 215.86 160.01 216.8 163.25 214.93 161.63 213.99 158.38 215.86" style="fill:#C7A14A"></polygon><polygon points="158.39 216.92 160.01 217.86 160.01 216.8 158.38 215.86 158.39 216.92" style="fill:#C7A14A"></polygon><polygon points="158.39 216.92 160.01 217.86 160.01 216.8 158.38 215.86 158.39 216.92" style="opacity:0.30000000000000004"></polygon><polygon points="144.16 206.04 144.16 207.27 143.1 206.66 144.16 206.04"></polygon><polygon points="146.34 204.79 169.06 217.9 170.12 217.28 147.41 204.17 146.34 204.79" style="fill:#263238"></polygon><polygon points="151.59 209.25 151.59 208.19 154.83 206.31 154.83 207.38 151.59 209.25" style="fill:#C7A14A"></polygon><polygon points="151.59 209.25 151.59 208.19 154.83 206.31 154.83 207.38 151.59 209.25" style="opacity:0.15"></polygon><polygon points="149.96 207.25 151.59 208.19 154.83 206.31 153.21 205.38 149.96 207.25" style="fill:#C7A14A"></polygon><polygon points="149.96 208.31 151.59 209.25 151.59 208.19 149.96 207.25 149.96 208.31" style="fill:#C7A14A"></polygon><polygon points="149.96 208.31 151.59 209.25 151.59 208.19 149.96 207.25 149.96 208.31" style="opacity:0.30000000000000004"></polygon><polygon points="147.41 204.17 147.41 205.4 146.34 204.79 147.41 204.17"></polygon><path d="M164,229.1h0l-.16-2.79h-2.52l-.17,2.78h0a.67.67,0,0,0,.41.62,2.25,2.25,0,0,0,2,0A.69.69,0,0,0,164,229.1Z" style="fill:#C7A14A"></path><path d="M164,229.1h0l-.16-2.79h-2.52l-.17,2.78h0a.67.67,0,0,0,.41.62,2.25,2.25,0,0,0,2,0A.69.69,0,0,0,164,229.1Z" style="opacity:0.2"></path><path d="M161.68,226.86c-.49-.28-.49-.74,0-1a2,2,0,0,1,1.78,0c.49.29.49.75,0,1A2,2,0,0,1,161.68,226.86Z" style="fill:#C7A14A"></path><path d="M168.24,226.66h0l-.17-2.79h-2.52l-.16,2.77h0a.7.7,0,0,0,.41.63,2.25,2.25,0,0,0,2,0A.68.68,0,0,0,168.24,226.66Z" style="fill:#C7A14A"></path><path d="M168.24,226.66h0l-.17-2.79h-2.52l-.16,2.77h0a.7.7,0,0,0,.41.63,2.25,2.25,0,0,0,2,0A.68.68,0,0,0,168.24,226.66Z" style="opacity:0.2"></path><path d="M165.93,224.41a.54.54,0,0,1,0-1,1.93,1.93,0,0,1,1.78,0,.54.54,0,0,1,0,1A1.93,1.93,0,0,1,165.93,224.41Z" style="fill:#C7A14A"></path><path d="M172.5,224.21h0l-.17-2.79h-2.51l-.17,2.78h0a.67.67,0,0,0,.41.62,2.22,2.22,0,0,0,2,0A.69.69,0,0,0,172.5,224.21Z" style="fill:#C7A14A"></path><path d="M172.5,224.21h0l-.17-2.79h-2.51l-.17,2.78h0a.67.67,0,0,0,.41.62,2.22,2.22,0,0,0,2,0A.69.69,0,0,0,172.5,224.21Z" style="opacity:0.2"></path><path d="M170.19,222c-.5-.29-.5-.75,0-1a1.93,1.93,0,0,1,1.78,0c.49.28.49.74,0,1A2,2,0,0,1,170.19,222Z" style="fill:#C7A14A"></path><path d="M176.75,221.76h0l-.17-2.79h-2.52l-.17,2.78h0a.68.68,0,0,0,.41.62,2.25,2.25,0,0,0,2,0A.69.69,0,0,0,176.75,221.76Z" style="fill:#C7A14A"></path><path d="M176.75,221.76h0l-.17-2.79h-2.52l-.17,2.78h0a.68.68,0,0,0,.41.62,2.25,2.25,0,0,0,2,0A.69.69,0,0,0,176.75,221.76Z" style="opacity:0.2"></path><path d="M174.44,219.52c-.49-.28-.49-.74,0-1a2,2,0,0,1,1.78,0c.49.29.49.75,0,1A2,2,0,0,1,174.44,219.52Z" style="fill:#C7A14A"></path><path d="M172.51,229.12h0l-.17-2.79h-2.52l-.16,2.78h0a.69.69,0,0,0,.41.62,2.25,2.25,0,0,0,2,0A.68.68,0,0,0,172.51,229.12Z" style="fill:#C7A14A"></path><path d="M172.51,229.12h0l-.17-2.79h-2.52l-.16,2.78h0a.69.69,0,0,0,.41.62,2.25,2.25,0,0,0,2,0A.68.68,0,0,0,172.51,229.12Z" style="opacity:0.2"></path><path d="M170.2,226.88c-.49-.29-.49-.75,0-1a2,2,0,0,1,1.78,0c.49.28.49.74,0,1A2,2,0,0,1,170.2,226.88Z" style="fill:#C7A14A"></path><path d="M176.77,226.67h0l-.17-2.78h-2.51l-.17,2.77h0a.69.69,0,0,0,.42.62,2.16,2.16,0,0,0,2,0A.69.69,0,0,0,176.77,226.67Z" style="fill:#C7A14A"></path><path d="M176.77,226.67h0l-.17-2.78h-2.51l-.17,2.77h0a.69.69,0,0,0,.42.62,2.16,2.16,0,0,0,2,0A.69.69,0,0,0,176.77,226.67Z" style="opacity:0.2"></path><path d="M174.45,224.43c-.49-.28-.49-.74,0-1a2,2,0,0,1,1.79,0c.49.29.49.75,0,1A2,2,0,0,1,174.45,224.43Z" style="fill:#C7A14A"></path><path d="M181,224.23h0l-.16-2.79h-2.52l-.17,2.78h0a.67.67,0,0,0,.41.62,2.25,2.25,0,0,0,2,0A.69.69,0,0,0,181,224.23Z" style="fill:#C7A14A"></path><path d="M181,224.23h0l-.16-2.79h-2.52l-.17,2.78h0a.67.67,0,0,0,.41.62,2.25,2.25,0,0,0,2,0A.69.69,0,0,0,181,224.23Z" style="opacity:0.2"></path><path d="M178.71,222c-.49-.29-.49-.75,0-1a1.93,1.93,0,0,1,1.78,0c.49.28.49.74,0,1A2,2,0,0,1,178.71,222Z" style="fill:#C7A14A"></path><path d="M181,219.32h0l-.17-2.79h-2.51l-.17,2.78h0a.71.71,0,0,0,.41.62,2.25,2.25,0,0,0,2,0A.71.71,0,0,0,181,219.32Z" style="fill:#C7A14A"></path><path d="M181,219.32h0l-.17-2.79h-2.51l-.17,2.78h0a.71.71,0,0,0,.41.62,2.25,2.25,0,0,0,2,0A.71.71,0,0,0,181,219.32Z" style="opacity:0.2"></path><path d="M178.69,217.07a.54.54,0,0,1,0-1,1.93,1.93,0,0,1,1.78,0c.5.28.5.74,0,1A1.93,1.93,0,0,1,178.69,217.07Z" style="fill:#C7A14A"></path><path d="M120.39,246h0l.17-2.79h2.52l.17,2.78h0a.69.69,0,0,1-.41.62,2.25,2.25,0,0,1-2,0A.69.69,0,0,1,120.39,246Z" style="fill:#C7A14A"></path><path d="M120.39,246h0l.17-2.79h2.52l.17,2.78h0a.69.69,0,0,1-.41.62,2.25,2.25,0,0,1-2,0A.69.69,0,0,1,120.39,246Z" style="opacity:0.2"></path><path d="M122.7,243.76c.49-.29.49-.75,0-1a1.93,1.93,0,0,0-1.78,0c-.49.28-.49.74,0,1A2,2,0,0,0,122.7,243.76Z" style="fill:#C7A14A"></path><path d="M116.13,243.55h0l.17-2.79h2.51l.17,2.78h0a.71.71,0,0,1-.41.62,2.25,2.25,0,0,1-2,0A.71.71,0,0,1,116.13,243.55Z" style="fill:#C7A14A"></path><path d="M116.13,243.55h0l.17-2.79h2.51l.17,2.78h0a.71.71,0,0,1-.41.62,2.25,2.25,0,0,1-2,0A.71.71,0,0,1,116.13,243.55Z" style="opacity:0.2"></path><path d="M118.45,241.31c.49-.28.49-.74,0-1a2,2,0,0,0-1.78,0c-.5.29-.5.75,0,1A2,2,0,0,0,118.45,241.31Z" style="fill:#C7A14A"></path><path d="M111.88,241.11h0l.16-2.79h2.52l.17,2.77h0a.66.66,0,0,1-.41.62,2.18,2.18,0,0,1-2,0A.67.67,0,0,1,111.88,241.11Z" style="fill:#C7A14A"></path><path d="M111.88,241.11h0l.16-2.79h2.52l.17,2.77h0a.66.66,0,0,1-.41.62,2.18,2.18,0,0,1-2,0A.67.67,0,0,1,111.88,241.11Z" style="opacity:0.2"></path><path d="M114.19,238.86c.49-.28.49-.74,0-1a2,2,0,0,0-1.78,0c-.49.29-.49.75,0,1A1.93,1.93,0,0,0,114.19,238.86Z" style="fill:#C7A14A"></path><path d="M107.63,238.66h0l.17-2.79h2.52l.16,2.78h0a.69.69,0,0,1-.41.62,2.25,2.25,0,0,1-2,0A.68.68,0,0,1,107.63,238.66Z" style="fill:#C7A14A"></path><path d="M107.63,238.66h0l.17-2.79h2.52l.16,2.78h0a.69.69,0,0,1-.41.62,2.25,2.25,0,0,1-2,0A.68.68,0,0,1,107.63,238.66Z" style="opacity:0.2"></path><path d="M109.94,236.42c.49-.29.49-.75,0-1a1.93,1.93,0,0,0-1.78,0c-.49.28-.49.74,0,1A2,2,0,0,0,109.94,236.42Z" style="fill:#C7A14A"></path><path d="M103.37,236.21h0l.17-2.79h2.51l.17,2.78h0a.7.7,0,0,1-.42.62,2.22,2.22,0,0,1-2,0A.71.71,0,0,1,103.37,236.21Z" style="fill:#C7A14A"></path><path d="M103.37,236.21h0l.17-2.79h2.51l.17,2.78h0a.7.7,0,0,1-.42.62,2.22,2.22,0,0,1-2,0A.71.71,0,0,1,103.37,236.21Z" style="opacity:0.2"></path><path d="M105.69,234c.49-.28.49-.74,0-1a2,2,0,0,0-1.79,0c-.49.29-.49.75,0,1A2,2,0,0,0,105.69,234Z" style="fill:#C7A14A"></path><path d="M131.26,250.39a.69.69,0,0,0,0-1.31,2.54,2.54,0,0,0-2.28,0,.69.69,0,0,0,0,1.31A2.48,2.48,0,0,0,131.26,250.39Z" style="fill:#C7A14A"></path><path d="M98.81,231.67a.7.7,0,0,0,0-1.32,2.52,2.52,0,0,0-2.27,0,.7.7,0,0,0,0,1.32A2.52,2.52,0,0,0,98.81,231.67Z" style="fill:#C7A14A"></path><path d="M215.56,201.69a.69.69,0,0,0,0-1.31,2.52,2.52,0,0,0-2.27,0,.69.69,0,0,0,0,1.31A2.46,2.46,0,0,0,215.56,201.69Z" style="fill:#C7A14A"></path><path d="M183.12,183a.7.7,0,0,0,0-1.32,2.54,2.54,0,0,0-2.28,0,.7.7,0,0,0,0,1.32A2.54,2.54,0,0,0,183.12,183Z" style="fill:#C7A14A"></path></g><g id="freepik--arm--inject-506"><path d="M124.68,222a17.21,17.21,0,0,0-.75-1.56c-1.32-2.4-3.11-5.54-4.33-7.58-.31-.52-.75-1.3-1.19-2.1a13.67,13.67,0,0,0,1.21.83,7.48,7.48,0,0,0,2.48.9,3.78,3.78,0,0,0,2-.18,1.07,1.07,0,0,0,.76-1.09,1.42,1.42,0,0,0-.54-.82c-1.41-1.29-2.84-2.54-4.15-4-.57-.62-1.13-1.26-1.72-1.85a13.89,13.89,0,0,0-3.2-2.4c-1.16-.63-2.36-.84-3.38-1.71a14.7,14.7,0,0,1-2.59-3.31c-3.58-5.46-10-23.81-10-23.81l3.48-18.41c1.51-6.27,3.75-20.24-.58-32.88-10.19,3.16-13.64,5.78-16,18.64-1.33,7.27-3,14.26-4.27,24.23-1.44,11-1.84,11.52,2.89,19.37,2.89,4.78,7.61,11.83,12.47,19.27,1.64,2.53,3.22,4.48,4.57,8,1.1,2.9,2.52,6.48,3.8,9.07.64,1.32,1.72,4.18,3.57,3.65a.65.65,0,0,0,.37-.24c.42-.59-.15-2.16-.3-2.79a28.61,28.61,0,0,0-.88-3c-.07-.2-.71-2.3,0-1.8a4.59,4.59,0,0,1,1.07,1.24,80.13,80.13,0,0,0,5.22,6.74,4.84,4.84,0,0,0,2,1.59,2.33,2.33,0,0,0,1.91-.21.74.74,0,0,1,.31-.12.67.67,0,0,1,.41.24,3.46,3.46,0,0,0,2.78,1,1.47,1.47,0,0,0,.94-.41,1.52,1.52,0,0,0,.22-1.82,1.61,1.61,0,0,0,1.59-.76A2,2,0,0,0,124.68,222Z" style="fill:#ffa8a7"></path><path d="M118.79,225.42c.65-1.11-.68-2.47-1.19-3.39l-2.18-3.1c-1.42-2.09-2.84-4.17-4.17-6.34,1.55,2,3,4.06,4.45,6.13.73,1.35,4.25,5.31,3.09,6.7Z" style="fill:#f28f8f"></path><path d="M123.11,224.4q-4.33-6.19-8.12-12.83,4.35,6.19,8.12,12.83Z" style="fill:#f28f8f"></path><path d="M119.62,211.54l.13.07c-.58-.9-1.11-1.88-1.88-3A14.87,14.87,0,0,0,115.6,206a33.42,33.42,0,0,1,2.81,4.74A13.67,13.67,0,0,0,119.62,211.54Z" style="fill:#f28f8f"></path><path d="M102.35,120.71c-8,1.56-12.81,4.31-15.53,14.43-2.58,9.59-4.41,22.06-4.41,22.06s1.78,3.43,8.32,5.89c6.89,2.6,11.11.86,11.11.86s.87-5.68,2.63-17.11C106.65,132.7,104.39,123,102.35,120.71Z" style="fill:#37474f"></path></g><g id="freepik--Hand--inject-506"><path d="M191.59,179.45c-1.19-1.47-2-2.23-2.81-3.38s-1.58-2.34-2.46-3.48c-1.44-1.87-4-4.89-6-6.1-4-2.35-19.18-12.91-19.18-12.91l-9.4,13.49c7,3,16,5.91,20.48,7.74a6.74,6.74,0,0,1,3.35,2.38c1,1.43.16,3.11.61,5.75.39,2.23.82,4.38,1.05,6.63.08.81.18,1.7,1.22,1.58,2.19-.25,1.95-4,2-5.52,0-.38-.06-1.62.45-1.76.7-.19,1.62,1.53,1.88,2,.59,1,1,2.2,1.62,3.26a25,25,0,0,0,2.45,4,6,6,0,0,0,3.75,2.22c.46,0,1.58-.05,1.81-.51s-.38-1.33-.57-1.79a3,3,0,0,1-.17-1.57c.08-.67.32-1.29.38-2,0-.38.05-.76.11-1.13.13-1,.26-2,.35-3a24.67,24.67,0,0,0,.13-2.9A4.26,4.26,0,0,0,191.59,179.45Z" style="fill:#ffa8a7"></path><path d="M191.6,191.43c-.39-.44-.84-1-1.35-1.64a36.71,36.71,0,0,1-3.32-6.55s.73,2.32,1.56,4.43a25.31,25.31,0,0,0,3.39,5.62h0l-.11-.23a3,3,0,0,1-.17-1.57Z" style="fill:#f28f8f"></path></g></g></g><g id="freepik--Speaker--inject-506"><g id="freepik--speaker--inject-506"><path d="M77.45,292.19,44.76,311.06a7.1,7.1,0,0,0-3.2,5.56v65.52a7.08,7.08,0,0,0,3.2,5.55l23.67,13.66a7,7,0,0,0,6.41,0l32.68-18.87a7.09,7.09,0,0,0,3.21-5.55V311.41a7.11,7.11,0,0,0-3.21-5.56L83.86,292.19A7.1,7.1,0,0,0,77.45,292.19Z" style="fill:#37474f"></path><path d="M74.84,328.43l32.68-18.87c1.77-1,3.21-.2,3.21,1.85v65.52a7.09,7.09,0,0,1-3.21,5.55L74.84,401.35c-1.77,1-3.21.2-3.21-1.85V334A7.07,7.07,0,0,1,74.84,328.43Z" style="fill:#455a64"></path><path d="M68.43,328.43,44.76,314.76c-1.77-1-3.2-.19-3.2,1.86v65.52a7.08,7.08,0,0,0,3.2,5.55l23.66,13.66c1.78,1,3.21.2,3.21-1.85V334A7.06,7.06,0,0,0,68.43,328.43Z" style="fill:#263238"></path><path d="M83.86,292.19l23.66,13.66c1.77,1,1.77,2.68,0,3.71L74.84,328.43a7.1,7.1,0,0,1-6.41,0L44.76,314.76c-1.77-1-1.77-2.67,0-3.7l32.69-18.87A7.1,7.1,0,0,1,83.86,292.19Z" style="fill:#37474f"></path><path d="M91.18,384.89c7.43-4.29,13.46-14.73,13.46-23.32s-6-12.06-13.46-7.77-13.46,14.73-13.46,23.32S83.74,389.18,91.18,384.89Z" style="fill:#263238"></path><path d="M91.18,383.33c6.69-3.86,12.11-13.25,12.11-21s-5.42-10.86-12.11-7-12.11,13.25-12.11,21S84.49,387.2,91.18,383.33Z" style="fill:#37474f"></path><path d="M91.18,377.51a15.61,15.61,0,0,0,7.07-12.25c0-4.51-3.16-6.34-7.07-4.08a15.61,15.61,0,0,0-7.07,12.25C84.11,377.94,87.27,379.77,91.18,377.51Z" style="fill:#C7A14A"></path><path d="M91.18,371.77a4.65,4.65,0,0,0,2.1-3.64c0-1.34-.94-1.88-2.1-1.21a4.65,4.65,0,0,0-2.1,3.64C89.08,371.9,90,372.44,91.18,371.77Z" style="fill:#C7A14A"></path><path d="M91.18,371.77a4.65,4.65,0,0,0,2.1-3.64c0-1.34-.94-1.88-2.1-1.21a4.65,4.65,0,0,0-2.1,3.64C89.08,371.9,90,372.44,91.18,371.77Z" style="fill:#fff;opacity:0.30000000000000004"></path><path d="M91.18,348.82c5.48-3.17,9.93-10.87,9.93-17.2s-4.45-8.9-9.93-5.73-9.93,10.86-9.93,17.19S85.7,352,91.18,348.82Z" style="fill:#263238"></path><path d="M91.18,347.67c4.93-2.85,8.93-9.78,8.93-15.48s-4-8-8.93-5.15-8.93,9.77-8.93,15.47S86.25,350.52,91.18,347.67Z" style="fill:#37474f"></path><path d="M91.18,343.37a11.51,11.51,0,0,0,5.21-9c0-3.33-2.33-4.67-5.21-3a11.53,11.53,0,0,0-5.22,9C86,343.69,88.3,345,91.18,343.37Z" style="fill:#C7A14A"></path><path d="M91.18,339.14a3.42,3.42,0,0,0,1.55-2.68c0-1-.7-1.39-1.55-.9a3.43,3.43,0,0,0-1.55,2.69C89.63,339.23,90.32,339.63,91.18,339.14Z" style="fill:#C7A14A"></path><path d="M91.18,339.14a3.42,3.42,0,0,0,1.55-2.68c0-1-.7-1.39-1.55-.9a3.43,3.43,0,0,0-1.55,2.69C89.63,339.23,90.32,339.63,91.18,339.14Z" style="fill:#fff;opacity:0.30000000000000004"></path><path d="M107.23,313.2a2.54,2.54,0,0,0-1.15,2c0,.73.51,1,1.15.66a2.55,2.55,0,0,0,1.14-2C108.37,313.13,107.86,312.84,107.23,313.2Z" style="fill:#263238"></path><path d="M75.78,331.36a2.55,2.55,0,0,0-1.14,2c0,.73.51,1,1.14.66a2.52,2.52,0,0,0,1.15-2C76.93,331.29,76.42,331,75.78,331.36Z" style="fill:#263238"></path><path d="M107.23,376.52a2.54,2.54,0,0,0-1.15,2c0,.73.51,1,1.15.66a2.54,2.54,0,0,0,1.14-2C108.37,376.45,107.86,376.16,107.23,376.52Z" style="fill:#263238"></path><path d="M75.78,394.68a2.55,2.55,0,0,0-1.14,2c0,.73.51,1,1.14.66a2.5,2.5,0,0,0,1.15-2C76.93,394.61,76.42,394.32,75.78,394.68Z" style="fill:#263238"></path><path d="M53.78,368.59l5.62,3.25c1.77,1,3.21.19,3.21-1.86v-16.9a7.07,7.07,0,0,0-3.21-5.55l-5.62-3.25c-1.77-1-3.2-.19-3.2,1.85V363A7.08,7.08,0,0,0,53.78,368.59Z" style="fill:#37474f"></path><path d="M52.08,347.28c0-1.23.86-1.73,1.93-1.11l5.17,3a4.25,4.25,0,0,1,1.93,3.33v3l-9-5.2Z" style="fill:#263238"></path><path d="M61.11,368.84c0,1.23-.87,1.72-1.93,1.11L54,367a4.22,4.22,0,0,1-1.93-3.33v-3l9,5.21Z" style="fill:#263238"></path></g></g><g id="freepik--character-3--inject-506"><g id="freepik--character--inject-506"><g id="freepik--bottom--inject-506"><path d="M344.81,299.71c-.38,5.09-.75,8.17.79,12.14,2.5,6.46,5.13,11.42,6.7,13s.23,2.9-3.7,3.57a11.83,11.83,0,0,1-11.24-4.38c-2.56-3.54-4.38-6.91-6.28-8.44s-1-4.1-.65-7.25c.73-6.7-1.44-21.87-1.44-21.87l16.7-.44S345.28,293.39,344.81,299.71Z" style="fill:#c8856a"></path><path d="M328.54,314.71a6.09,6.09,0,0,0-.2,2.25c.18,1,2,2.73,3.13,3.65a8.17,8.17,0,0,1,3.11,5.17,14.55,14.55,0,0,0,5.42,8.29,23.51,23.51,0,0,0,12.77,4.11c5.72.27,7-2.67,7-2.67s1-2.79-.22-3.54S328.54,314.71,328.54,314.71Z" style="fill:#263238"></path><path d="M330.84,302.32l-.06,0c-.49.35-.43,1.93-.55,2.51a28.91,28.91,0,0,1-1.29,4.47c-.53,1.46-1.22,3.8-.4,5.38,1.07,2.45,4.36,3.89,5.82,7.23s3.36,9.24,10.19,12.13,12.83,1.94,14.65.31,1.08-3.7-2.91-7c-4.24-3.53-8.76-12.29-8.76-12.3a27.67,27.67,0,0,1-2-5.18,13.33,13.33,0,0,1-.57-2.85,9.88,9.88,0,0,1,.71-2.93.74.74,0,0,0,0-.44.72.72,0,0,0-.38-.3,13.66,13.66,0,0,0-8.28-.41c-.86.18-1.84.53-2.12,1.36s.09,1.51-.3,2.11a.26.26,0,0,1-.19.15c-.17,0-.24-.21-.25-.38l-.12-1.73a2,2,0,0,0-.34-1.21,1.63,1.63,0,0,0-.54-.39C332.69,302.61,331.41,302,330.84,302.32Z" style="fill:#37474f"></path><path d="M340.32,331.46s1.12-4.74,7.21-6.16,8.93,1,10.3,2.44c1.63,1.76,3.73,5.15,1.49,6.8-2.41,1.78-5.64,2.17-11.18,1S340.32,331.46,340.32,331.46Z" style="fill:#fafafa"></path><path d="M337,314.1a.71.71,0,0,0,.56-.13c.82-.67,5.53-2.82,9.08-1,.3-.37.09-.87-.58-1.48-3.9-1.2-8.37.81-9.37,1.62a.54.54,0,0,0,0,.81A.62.62,0,0,0,337,314.1Z" style="fill:#fafafa"></path><path d="M348.1,316.12a1.74,1.74,0,0,0-.75-1.47,12.36,12.36,0,0,0-8.88,1.76.53.53,0,0,0,0,.81.73.73,0,0,0,.35.18.69.69,0,0,0,.55-.14C340.13,316.61,344.6,314.58,348.1,316.12Z" style="fill:#fafafa"></path><path d="M345.59,310.13a1,1,0,0,0-.38-1.56c-4.1-1.92-9.26.37-10.33,1.25a.53.53,0,0,0,0,.81.78.78,0,0,0,.35.18.68.68,0,0,0,.55-.14C336.63,310,342,307.52,345.59,310.13Z" style="fill:#fafafa"></path><path d="M352.58,323.2a3.3,3.3,0,0,0-1.32-1.87c-3.86-1.09-8.23.87-9.21,1.67a.54.54,0,0,0,0,.81.62.62,0,0,0,.35.18.71.71,0,0,0,.56-.13C343.78,323.15,349,320.8,352.58,323.2Z" style="fill:#fafafa"></path><path d="M340.57,320.69a.64.64,0,0,0,.55-.13c.82-.66,5.44-2.76,9-1.06a2.05,2.05,0,0,0-.95-1.56,12.41,12.41,0,0,0-8.88,1.77.53.53,0,0,0,0,.81A.68.68,0,0,0,340.57,320.69Z" style="fill:#fafafa"></path><path d="M285.37,304.49c.19-7.09.34-17.53.34-17.53l17.17,3.18s-3.41,11.49-4,15.85-.84,8.7-2.45,10.41S282.59,319.66,285.37,304.49Z" style="fill:#c8856a"></path><path d="M296.5,334.28c-.43,4-1.18,6.67-2.69,9s-4.17,2.89-6.79,2.05-5.92-2.89-6.49-6.42-.9-5.94-.11-9.65Z" style="fill:#263238"></path><path d="M285.37,304.49c-1.1,0-1.08,5.4-2,10.79-1,5.79-1.91,8.05-2.76,12.79-1,5.41-.23,7.89,1.45,11.29s8.07,7,11.54,2.47c2.83-3.7,3.16-8,3.2-13.42a81.46,81.46,0,0,1,1.44-13.62c.68-4.37,1.56-8.3.63-8.8-.22,1.17-.71,3.48-1,4.31-.09.31-.58,1-.69-.12,0-.34.1-1.11.09-1.45a1.43,1.43,0,0,0-.92-1.36,10.4,10.4,0,0,0-4.6-1.32c-2.14-.13-4-.31-5.2.26-.74.34-.76,1-.87,1.72s-.17,1.33-.36,1.15C285,308.83,285.46,305.08,285.37,304.49Z" style="fill:#37474f"></path><path d="M280.15,331.21a14,14,0,0,0,1.62,8.4c1.68,3.4,8.59,7,12.06,2.5,1.73-2.26,2.3-5,2.67-7.83C294.75,330.53,283.36,328.28,280.15,331.21Z" style="fill:#fafafa"></path><path d="M294.42,328.22l-.13-.05s-5-2.47-10-1.57a.41.41,0,0,1-.47-.34.41.41,0,0,1,.33-.48,18.63,18.63,0,0,1,10.5,1.65.43.43,0,0,1,.16.57A.41.41,0,0,1,294.42,328.22Z" style="fill:#f0f0f0"></path><path d="M284.77,322.55a.42.42,0,0,1-.33-.3.43.43,0,0,1,.29-.52c5-1.43,10.29,1.44,10.49,1.57a.43.43,0,0,1,.14.57.41.41,0,0,1-.56.15s-5.21-2.82-9.85-1.48A.37.37,0,0,1,284.77,322.55Z" style="fill:#f0f0f0"></path><path d="M285.14,318.73a.38.38,0,0,1-.32-.29.4.4,0,0,1,.27-.52c5.49-1.69,10.51,1.41,10.69,1.54a.42.42,0,0,1,.11.58.41.41,0,0,1-.57.11s-4.89-3-10-1.43A.37.37,0,0,1,285.14,318.73Z" style="fill:#f0f0f0"></path><path d="M285.61,315a.41.41,0,0,1-.33-.28.42.42,0,0,1,.27-.53c5.15-1.67,10.55,1.53,10.76,1.66a.44.44,0,0,1,.12.58.4.4,0,0,1-.57.12s-5.29-3.11-10.07-1.56A.37.37,0,0,1,285.61,315Z" style="fill:#ebebeb"></path><path d="M289,179.62c-1.76,10.86-1.93,15.67-1.18,34.4.3,7.34,1.23,27.06,1,29.94-.41,6.61-2.79,8.91-3.34,24.49-.51,14.29-.47,28.91-.47,28.91A11.71,11.71,0,0,0,293,301a13.06,13.06,0,0,0,7.74-1.55s10.91-35.33,12.78-43.87a218.77,218.77,0,0,0,4-30.58l9.59,22.09s-1.58,7.59-.63,20c.75,9.89,3.43,27.42,3.43,27.42a11.09,11.09,0,0,0,7,2.28c6-.17,8.33-2,8.33-2S349,264.63,350.17,249c.27-3.7,1.14-8.42-.43-16.21-4.13-20.43-8.38-41.52-10.05-53Z" style="fill:#455a64"></path><path d="M317.56,224.91l.89-18.83s9.46-1.63,14.45-7.21c-.31,4.1-8.08,9.47-11.37,10.35l-.87,15.57L327.15,247Z" style="fill:#263238"></path><path d="M328.76,289l.75,6.83s2.68,1.9,8.54,1.66,7.64-2,7.64-2l.59-6.36s-2.55,1.21-7.9,1.48A23.52,23.52,0,0,1,328.76,289Z" style="fill:#263238"></path><path d="M285,292.4l-.16,6.77s2.73,2.44,8.75,3.22,7.25-.83,7.25-.83l1.33-6.22s-1.69,1-7.19.31A29.27,29.27,0,0,1,285,292.4Z" style="fill:#263238"></path></g><g id="freepik--top--inject-506"><g id="freepik--arm--inject-506"><path d="M355.51,109.59c-11.8,20.57-16.59,27.65-18.24,34.83-6.74,0-19.64-18.37-12.83-22.49,2.21-1.33,6.41-4.84,7.1-6,0,0,8.45-13.11,14-22.23.54-4.9,1-25.64.14-32.42a4.71,4.71,0,0,0-1.61-2.89c-2.46-2.19-3.6-5-5.3-7.53-1.32-2-2.62-2.63-2.31-3.13a2.68,2.68,0,0,1,3.6-.61c.94.47,3.16,2.9,4,3.26s-.45-3.54-2.68-7.49c-1.28-2.27-2-4.28-1.54-6.07.21-.84.84-1.36,1.47-1.11a1.76,1.76,0,0,1,.61.45,1.75,1.75,0,0,1,.43-1.7c.75-.84,1.53-.39,2.09.35l.75,1a2,2,0,0,1,2.48.6c.22.26.72,1,.72,1,.72-.31,1.86-.61,3,1a30.14,30.14,0,0,1,3.55,5.14,22.85,22.85,0,0,1,1.79,4.79,19.85,19.85,0,0,1,1,5.1c0,4.78-1,5.33-.1,11.47,1.48,9.64,3.4,20.77,3.7,30.61C361.39,98.71,358.77,103.9,355.51,109.59Z" style="fill:#c8856a"></path><path d="M350.43,53a5.17,5.17,0,0,0-4.16-2c-.09,0-.08.2,0,.22a8.44,8.44,0,0,1,5,6.2c0,.2.11.44.31.44a6.66,6.66,0,0,0,0-2.27A6.38,6.38,0,0,0,350.43,53Z" style="fill:#af6152"></path><path d="M325.09,119.82c2.62-1.23,5.14-4.32,6.77-6.54s10-13.91,10-13.91-1,4.83,5,10.37a14,14,0,0,0,6.91,3.39s-6.83,12.79-11,22.49A73,73,0,0,0,337.62,153s-4.16-1-8.81-12.17A48.51,48.51,0,0,1,325.09,119.82Z" style="fill:#f0f0f0"></path></g><path id="freepik--chest--inject-506" d="M299.58,123.87a41.4,41.4,0,0,1-8.38,1.52c-3.85,2-10.89,5.45-10.89,5.45s-1.92,13.26,4,25.79c1.32,2.77,2.17,8,2.38,14.6.29,9.61.31,11.64.3,20.29,0,0,9.17,6.4,30.83,3.75,17-2.09,23.35-8.47,23.35-8.47s-3-23.21-3.67-35.79c-.92-17-8.63-28.48-12.45-31.19a45,45,0,0,1-9.1,1.77Z" style="fill:#C7A14A"></path><g style="opacity:0.30000000000000004"><path id="freepik--chest--inject-506" d="M299.58,123.87a41.4,41.4,0,0,1-8.38,1.52c-3.85,2-10.89,5.45-10.89,5.45s-1.92,13.26,4,25.79c1.32,2.77,2.17,8,2.38,14.6.29,9.61.31,11.64.3,20.29,0,0,9.17,6.4,30.83,3.75,17-2.09,23.35-8.47,23.35-8.47s-3-23.21-3.67-35.79c-.92-17-8.63-28.48-12.45-31.19a45,45,0,0,1-9.1,1.77Z" style="fill:#fff"></path></g><g id="freepik--head--inject-506"><path d="M288.89,92a7,7,0,0,1,2.84-2.67c-.26-2.54,1.17-5,2.94-6.74a17,17,0,0,1,14.61-4.83,19.83,19.83,0,0,0,4.14.47,2,2,0,0,0,1.36-.55c.12-.1,1-1.06.85-1.23a3.12,3.12,0,0,1,.65,3.63,5.54,5.54,0,0,1,4.74.78,3.32,3.32,0,0,1,.69,4.49A3.55,3.55,0,0,1,324.27,88a5.39,5.39,0,0,1-.51,3.77c-.37.74-1.11,1.74-2,1.84-.6.07-1.26-.22-1.89-.2l-3.87.14-9,.3c-.44,0-6.23.52-6.33.22a13.39,13.39,0,0,1,.7,4.29c0,3.41-3.34,7.22-3.34,7.22l.71,4.67c.16,1.31.09,2.71.16,4.05,0,.1,0,.23-.09.29-.57-.56-1-1.25-1.53-1.84-2.63-2.91-5.61-5.67-7.63-9.12a13.4,13.4,0,0,1-2-7.73A9.06,9.06,0,0,1,288.89,92Z"></path><path d="M292.75,112.31c3.58,1.31,4.86-1.54,4.86-1.54l1.87,13.51c7.42,8.1,24.56,3.19,16.74-2.65l-.2-3.15a25.79,25.79,0,0,0,3.07-.91c2.87-1.1,5.65-2.86,6.14-7.5.61-5.78-.62-11.59-3.26-19.64-.51-1.55-1.37-3.21-2.9-3.79-3.8-1.43-6.9,1.49-11.74,4-2,1-7,1.89-8.44,1.39,1.95,1.77,2.66,7,.31,9.76,0,.23.16,2.27-.93,3s-2.46-1.59-3.48-2.47a3.82,3.82,0,0,0-5.78,2A6.22,6.22,0,0,0,292.75,112.31Z" style="fill:#c8856a"></path><path d="M316,118.48c-4,.37-7.8.08-10.11-1a11.64,11.64,0,0,1-6.53-7.1c.25,2.52,2.56,7.76,6.28,9.26s7.86,1.19,10.46,1Z" style="fill:#af6152"></path><path d="M309.29,95.52l-3.14,1.85a1.92,1.92,0,0,1,.67-2.57A1.78,1.78,0,0,1,309.29,95.52Z"></path><path d="M321.11,95l-3.54-1a1.77,1.77,0,0,1,2.21-1.29A1.93,1.93,0,0,1,321.11,95Z"></path><path d="M313.49,96.78l2.16,9.3,4.79-2.34A22.22,22.22,0,0,0,313.49,96.78Z" style="fill:#af6152"></path><path d="M318.22,98.09c.06.82.65-.31,1.47-.37s1.56,1,1.5.17a1.49,1.49,0,1,0-3,.2Z"></path><path d="M307.88,100.46c.28.77.53-.48,1.3-.76s1.78.52,1.5-.25a1.49,1.49,0,0,0-2.8,1Z"></path><path d="M310.52,107.79l5.3,1.18a2.68,2.68,0,0,1-3.19,2.15A2.84,2.84,0,0,1,310.52,107.79Z" style="fill:#af6152"></path><path d="M311.15,108.66a2.91,2.91,0,0,0-.66,0,2.67,2.67,0,0,0,3,2.49A2.48,2.48,0,0,0,311.15,108.66Z" style="fill:#f28f8f"></path></g><g id="freepik--arm--inject-506"><path d="M289.74,127.78a27.9,27.9,0,0,1-5.46-2.48,47,47,0,0,1-6.69-4.11c-4.29-3.86-15.67-12.36-15.67-12.36s1.09-15.64,1.45-19.47S264,82,265,80.1s2.94-3.63,4-5.44a19.31,19.31,0,0,0,2.23-5.12,13,13,0,0,1,1.48-3.26c.76-1.33-.84-1.77-1.8-1.5a4.43,4.43,0,0,0-2.19,1.42c-.73,1-1.52,3.09-2.88,3.28-1.06.14-.55-1.81-.48-2.42a18.4,18.4,0,0,1,.69-3.16c.35-1.16.75-3,1.18-5a13.84,13.84,0,0,0,.23-4.51,2.68,2.68,0,0,0-1.2-2.14c-.92-.49-1.4.57-1.7,1.41a7.53,7.53,0,0,0-1.33.09,2.26,2.26,0,0,0-1.65,1.43,3.54,3.54,0,0,0-3.61,2c-.24.58-.3.53-.9.67-1.1.25-1.39,1.24-1.86,2.15-1.43,2.84-2.31,4.43-2.88,7.57-.79,4.28-.45,8.35-.57,12.65a28.9,28.9,0,0,1-.86,6.05c-.93,4-1.66,7.07-2.73,11.11-.64,2.39-1.5,5.71-2.28,9.15-1.8,8-2.3,9.63,4.45,16,9.09,8.61,27,20.81,33.35,31.51C289.68,148.08,294.32,140.23,289.74,127.78Z" style="fill:#c8856a"></path><path d="M259.48,71.34a5.12,5.12,0,0,1,4.15-2c.1,0,.08.19,0,.22a8.43,8.43,0,0,0-5,6.2c0,.19-.12.44-.31.44a6.19,6.19,0,0,1,0-2.27A6.29,6.29,0,0,1,259.48,71.34Z" style="fill:#af6152"></path><path d="M261.92,108.83c-.28,1.8-1.55,7.5-4.26,8.67,4-.51,5.2-5.93,5.38-7.8Z" style="fill:#af6152"></path><path d="M291.2,125.39c-2.59.43-5.69-1-8.29-2.36s-12.5-7.71-12.5-7.71,1.25,3.9-.72,10.1c-2.24,7.08-6,8.88-6,8.88s5.72,5.2,10.88,10.27,7.61,7.81,9.77,12.06C290.73,155.26,296.48,136.62,291.2,125.39Z" style="fill:#f0f0f0"></path></g></g></g></g><g id="freepik--character-4--inject-506"><g id="freepik--character--inject-506"><g id="freepik--top--inject-506"><path d="M426.21,177.66a9.07,9.07,0,0,0-.1-4.08,5.22,5.22,0,0,1,2.2,4.3,4.33,4.33,0,0,0,2.94-3.57,7.33,7.33,0,0,0-1.07-4.68c-1-1.72-2.51-3.31-2.59-5.3-.09-2.35,1.87-4.36,2-6.71a8.19,8.19,0,0,0-1.92-4.86c-4.16-6-7.53-11.79-14.59-14.82-8.65-3.71-22.26-2.74-27.81,5.91a6.68,6.68,0,0,0-.91,5.87c.33.84.88,1.58,1.17,2.43a2.27,2.27,0,0,1-.47,2.5,1.9,1.9,0,0,1-1,.37,2.54,2.54,0,0,1-2.4-1.44,3.28,3.28,0,0,0,2.39,3.19,5.33,5.33,0,0,0,4.14-.66c-.59,1.1.52,2.32,1.56,3,.86.55,2.62,1.82,1.87,3.07a2,2,0,0,1-1.05.75c-1.25.45-2.67.41-3.81,1.09a3.52,3.52,0,0,0-1.34,4.33,7.6,7.6,0,0,0-7.95,1.42,9.43,9.43,0,0,0-2.9,7.72,12.56,12.56,0,0,0,3.6,7.57c7.07,7.31,19.93,7.38,29.16,5.17a29.15,29.15,0,0,0,9.4-4.24c2.51-1.67,5.5-1.77,7.58-4.23A9.26,9.26,0,0,0,426.21,177.66Z" style="fill:#263238"></path><g id="freepik--arm--inject-506"><path d="M357.08,163.47c-1.7,5.07-.33,7.82,5.24,13.45,9,9.07,23.85,23.74,23.85,23.74l11.19-19.55c-3.83-1.3-9.81-2.53-11.77-4.19-8-6.83-12-10-13.86-11.93,0,0,3.64-18,4.46-20s3-3.42,3.46-3.83c3.37-2.86,3.7-4.48,5.18-8.54l.74-2.09a8.73,8.73,0,0,1,.38-1c.15-.3.27-.56,0-.85a1.28,1.28,0,0,0-.85-.28,3.67,3.67,0,0,0-2.6,1.33,18.44,18.44,0,0,0-1.67,2.5c-.41.65-.72-.16-.82-.57-.46-2,.59-5.09,1.22-7a27.16,27.16,0,0,0,1.28-3.75,4,4,0,0,0-.25-2.41c-.24-.51-.63-.89-1.23-.53a2.87,2.87,0,0,0-.82,1c-.47.75-.95.6-1.88.81a7.2,7.2,0,0,0-1.73.44,4.29,4.29,0,0,0-1.55,1.54,1.4,1.4,0,0,0-1.68.55,19.13,19.13,0,0,0-3.19,5.49,23.79,23.79,0,0,0-1.1,7.4,13,13,0,0,1-1,4.54c-.73,1.77-3.67,8.38-6.69,14.27A56.34,56.34,0,0,0,357.08,163.47Z" style="fill:#b16668"></path><path d="M378.63,133.64a7.79,7.79,0,0,0-4.77,5.35,5.22,5.22,0,0,1,1-3.64A4.84,4.84,0,0,1,378.63,133.64Z" style="fill:#9a4a4d"></path></g><g id="freepik--head--inject-506"><path d="M415.25,178.33l-.52-9.52c.31,1.43,3.68,2.21,6.1-.72,2.22-2.67,2.33-6,.24-7.32-2.4-1.46-4.74-.31-6.49,2.64-.24.39-1.4-.36-1.57-.54a3,3,0,0,1-.68-1.9,17.31,17.31,0,0,1,.43-4.18,3,3,0,0,0-.07-2.16,5,5,0,0,0-1.33-1.7,23.26,23.26,0,0,0-2.86-1.9,6.79,6.79,0,0,1-2.43-2.36,12.5,12.5,0,0,0,1.13,2.94,14.25,14.25,0,0,1-6.88-5.94,11.56,11.56,0,0,0-1.32-2,17.44,17.44,0,0,1-1.4,1.92,17.67,17.67,0,0,1-4,3.55,2.47,2.47,0,0,0-1.16,1.25c-.17.35-.35.7-.51,1a24.87,24.87,0,0,0-1.88,7.46c-1,8.05-.14,13.13,3.11,15.24a12.69,12.69,0,0,0,6.73,1.84s.14,1.63.22,3.14a1.65,1.65,0,0,1-.82,1.62c-.45.25-2.53,3.1,4,4,6.25.82,11.64,2.64,14.6-2.53C415,182.6,415.25,178.33,415.25,178.33Z" style="fill:#b16668"></path><path d="M403.73,167.17l-4.32.91a2.17,2.17,0,0,0,2.57,1.78A2.31,2.31,0,0,0,403.73,167.17Z" style="fill:#9a4a4d"></path><path d="M403.37,168.11a2.44,2.44,0,0,0-2.61,1.64,2.1,2.1,0,0,0,1.22.11,2.26,2.26,0,0,0,1.71-1.68C403.58,168.16,403.48,168.12,403.37,168.11Z" style="fill:#ffa8a7"></path><path d="M392.76,153.35l3.39,0a1.63,1.63,0,0,0-1.65-1.7A1.78,1.78,0,0,0,392.76,153.35Z" style="fill:#263238"></path><path d="M408.68,155.15l-3.3-1a1.67,1.67,0,0,1,2.09-1.18A1.82,1.82,0,0,1,408.68,155.15Z" style="fill:#263238"></path><path d="M396.13,158c0,.78-.64-.3-1.43-.29s-1.43,1.08-1.41.3a1.46,1.46,0,0,1,1.46-1.4A1.35,1.35,0,0,1,396.13,158Z" style="fill:#263238"></path><path d="M406.33,158.87c0,.77-.65-.27-1.43-.27s-1.43,1.05-1.41.28a1.44,1.44,0,0,1,1.45-1.41A1.38,1.38,0,0,1,406.33,158.87Z" style="fill:#263238"></path><polygon points="395.25 162.43 399.87 164.63 401.45 155.39 395.25 162.43" style="fill:#9a4a4d"></polygon><path d="M399.87,175.93c5.56.48,11.12-2.51,12.57-6.15,0,0,.09,3.5-4.19,6-3.08,1.78-8.23,2.18-8.23,2.18Z" style="fill:#9a4a4d"></path></g><g id="freepik--chest--inject-506"><path d="M385.21,209.86a98.8,98.8,0,0,1-.35,11c-.52,5.56-3.69,12.68-3.69,12.68s3.23,5.29,19.59,7.89S431.52,236,431.52,236s-2.76-7.57-4.66-12.28-2.42-7.85-1.2-13.77Z" style="fill:#b16668"></path><path d="M384.55,214.07c7.84,7.72,28.94,9.47,41.09,1.69a15.59,15.59,0,0,1,.55-5s-6.18,1.16-8.35-8.41,5-19.74,5-19.74l-5-.49a22.59,22.59,0,0,1-12.46,2.31c-6.89-.81-6.11-3.74-6.11-3.74l-5.93-.81a61.46,61.46,0,0,0-9.95,14.19c-4.05,8.45,1.18,15,1.18,18.82C384.57,213.3,384.56,213.69,384.55,214.07Z" style="fill:#f0f0f0"></path></g><g id="freepik--arm--inject-506"><path d="M453.58,185.81c-18.64,11.28-23.68,16.28-27.39,24.95-11.14,0-11.75-17.27-3.32-28.15,0,0,18.26-7,26.34-12.57,0,0,9.68-15.49,11.5-21.5a4.27,4.27,0,0,0-.25-3c-1.25-2.76-1.15-5.56-1.62-8.31-.37-2.14-1.21-3.18-.77-3.48a2.48,2.48,0,0,1,3.26.83,4,4,0,0,1,.53.92q.27.59.57,1.17c1,1.89,2.76,3.28,3.18.16a34.46,34.46,0,0,0,.28-5.37c0-1.7-.66-3.37-.48-5.08.09-.93.59-2.51,1.64-2.81.28-.07.53.19.67.44.32.57.41,1.24.72,1.78a2.27,2.27,0,0,1,2.87,1.71,4,4,0,0,1,2.67,2,10.67,10.67,0,0,1,1,3.28,22.64,22.64,0,0,1-1.36,14.29c-1.21,2.56-2.84,4.83-3.82,7.51-.17.47-.33.95-.49,1.42-3.13,9.36-4.14,12.68-7,21.24C461.07,181,459.36,182.31,453.58,185.81Z" style="fill:#b16668"></path><path d="M425.13,194a13.66,13.66,0,0,1,8.06-5.37c.12,0,.14.25.05.29a15.91,15.91,0,0,0-7.21,5.8,15.25,15.25,0,0,0-2.12,9.26c0,.13-.16.41-.26.19C422.08,200.8,423.07,196.88,425.13,194Z" style="fill:#9a4a4d"></path><path d="M465.3,139.55c2.62,1.07,3.68,5.12,3.51,7.94C469.88,144.14,469.36,140.67,465.3,139.55Z" style="fill:#9a4a4d"></path></g></g><g id="freepik--bottom--inject-506"><path d="M400.61,390.73a17,17,0,0,0,10.55-.32,11.05,11.05,0,0,0,4.13-2,8.59,8.59,0,0,0,2.58-3.85c.58-1.84.53-3.84,1.13-5.68a14.56,14.56,0,0,1,2.17-3.91c1.58-2.2,3.29-4.3,4.74-6.59a8.83,8.83,0,0,0,1.45-3.4,2.24,2.24,0,0,0-1.59-2.72c-3.06-.74-6.17.74-9,2.2a25.45,25.45,0,0,0-6.28,4.12c-2.51,2.48-3.88,5.86-5.63,8.93a32.89,32.89,0,0,1-6.18,8c-.88.8-1.59,1.36-1.37,2.66.27,1.67,1.81,2.1,3.22,2.54Z" style="fill:#263238"></path><path d="M432.28,343.74a7.7,7.7,0,0,0,2.24-.79,11,11,0,0,0,4.26-4.46,15.33,15.33,0,0,0,1.51-10.28c-1.06-5.36-4.4-10.18-4.35-15.82,0-1.73.43-3.45.35-5.17s-.82-3.6-2.41-4.3a4,4,0,0,0-3.42.26,7.47,7.47,0,0,0-2.55,2.42c-5.16,7.33-3.07,16.83-1.35,24.85a32.88,32.88,0,0,1,.72,10.08c-.16,1.6,0,2.69,1.64,3.08A8.31,8.31,0,0,0,432.28,343.74Z" style="fill:#263238"></path><path d="M434.18,313.18c1.09-6.57.38-12.34-6.1-11.89-4,.29-7.39.46-10.92-1.33,3-7.57,7.7-19.75,10-27.45,5.93-20,9.23-28.95,1.55-42.72H383.94c-1.23,1.87-2.65,3.63-4,5.35-2.6,3.41-5.09,6.9-7.57,10.39-11.29,15.89-12.41,18.29-16.1,25.91-3,6.17-6.82,19.09,9.47,24.52,10.15,3.4,18.1,6,25.14,8.34-.13,4.13.68,8,4,17.9,3,9,5.07,14.91,8.5,25.13a89.8,89.8,0,0,1,3.21,10.23c.78,3.32.56,8.83-2,16.93a22,22,0,0,1-5.74,9.59c-1.84,1.93-1.64,4.49,4.58,5.49,3.23.53,8.51-.94,11.19-2.93s2.71-5,3.3-8.52c.95-5.78,4-8.46,6.37-10.77,3.13-3,1.72-7.22-1.24-10.06a9.29,9.29,0,0,1-3.27-6.24c-1.29-7.58-.45-13.34-.75-19.24-.33-6.08-.15-10.48-.85-14.72.48.42,1,.87,1.45,1.32,3.67,4.7,5.83,11.87,6.33,20.31.36,5.85,7.22,3.6,11.2-1.52C442.44,330.47,433,320.14,434.18,313.18Zm-40.84-31.35a29.19,29.19,0,0,0-13-2.67c4.25-4.41,10.56-10.25,15.32-14.56C394.61,272,394,276.44,393.34,281.83Z" style="fill:#b16668"></path><path d="M431,330.88c1.19-2.79,3.21-5.13,4.88-7.66a6.68,6.68,0,0,0,1.24-2.84c.22-1.85-.93-3.55-2-5.06-1,3.63-3.88,6.41-5.69,9.71a18.11,18.11,0,0,0-2.15,7.21c-1.46-1.54-2.64-4.18-3.63-6.07.49.94.36,3.11.64,4.19a27.4,27.4,0,0,0,1.38,4.57c1.08,2.22,2.8,5.22,4.95,6.52,0-1.71-.77-3.45-.73-5.24A14.34,14.34,0,0,1,431,330.88Z" style="fill:#C7A14A"></path><path d="M431,330.88c1.19-2.79,3.21-5.13,4.88-7.66a6.68,6.68,0,0,0,1.24-2.84c.22-1.85-.93-3.55-2-5.06-1,3.63-3.88,6.41-5.69,9.71a18.11,18.11,0,0,0-2.15,7.21c-1.46-1.54-2.64-4.18-3.63-6.07.49.94.36,3.11.64,4.19a27.4,27.4,0,0,0,1.38,4.57c1.08,2.22,2.8,5.22,4.95,6.52,0-1.71-.77-3.45-.73-5.24A14.34,14.34,0,0,1,431,330.88Z" style="opacity:0.35000000000000003"></path><path d="M407.7,380.51c2.74-1.3,5.81-1.71,8.74-2.5a6.74,6.74,0,0,0,2.8-1.3c1.39-1.24,1.66-3.28,1.84-5.13-3.16,2-7.15,2.23-10.69,3.5a18.14,18.14,0,0,0-6.39,4c-.08-2.12.79-4.88,1.3-6.94-.25,1-1.79,2.56-2.3,3.56a28.2,28.2,0,0,0-2,4.33c-.66,2.38-1.36,5.77-.61,8.16,1.14-1.27,1.71-3.09,2.92-4.41A14.55,14.55,0,0,1,407.7,380.51Z" style="fill:#C7A14A"></path><path d="M407.7,380.51c2.74-1.3,5.81-1.71,8.74-2.5a6.74,6.74,0,0,0,2.8-1.3c1.39-1.24,1.66-3.28,1.84-5.13-3.16,2-7.15,2.23-10.69,3.5a18.14,18.14,0,0,0-6.39,4c-.08-2.12.79-4.88,1.3-6.94-.25,1-1.79,2.56-2.3,3.56a28.2,28.2,0,0,0-2,4.33c-.66,2.38-1.36,5.77-.61,8.16,1.14-1.27,1.71-3.09,2.92-4.41A14.55,14.55,0,0,1,407.7,380.51Z" style="opacity:0.35000000000000003"></path><path d="M395.64,264.6l1.78-14.44s-11.18-5.94-13.89-14.2c-.41,13,10,19.37,10,19.37l-.95,8.29-12.29,15.53Z" style="fill:#9a4a4d"></path><path d="M393.34,281.82c-1,8.35-2.43,22.48-2.43,22.48l-1.6-.54,2.56-22.56Z" style="fill:#9a4a4d"></path><path d="M417.16,300l-1.58,4.78a71.5,71.5,0,0,1,2.61,12.35l1.45,1.34a69.37,69.37,0,0,0-1.78-13.32l1.21-4.36Z" style="fill:#9a4a4d"></path><path d="M384.34,224.1c1.4,2.53,11.83,8.67,25.62,7.2s17.36-6.47,17.36-6.47,5,8.28,6.56,14.13.16,12.65-1.91,20.09-7.2,22.78-7.2,22.78a61.53,61.53,0,0,1-6.22.4s1.82-14.64,1.09-21.35c-.73,7.08-6.71,21.35-6.71,21.35s-19.57-2-32.6-11.1-16.44-15.23-16.44-15.23,5.63-7.66,10.85-14.7A77.82,77.82,0,0,0,384.34,224.1Z" style="fill:#37474f"></path></g></g></g><g id="freepik--character-2--inject-506"><g id="freepik--character--inject-506"><g id="freepik--bottom--inject-506"><path d="M294.07,432.18c.62-.1.66,1.69.5,2.46s-2.52,3.5-6.94,4.69-10.67.77-13.33.83-7.17,1.61-9.79,2.15-7.45,0-9.12-1.37a2.67,2.67,0,0,1-.79-2.08c0-1.71.08-2.07.29-2.06Z" style="fill:#263238"></path><path d="M255.19,431.67c-.06.34-.1.68-.15,1a16.64,16.64,0,0,0,0,5.27,5,5,0,0,0,3.38,2.11c3.21.73,5.59.4,9-.5a27,27,0,0,1,6.8-1.14c2.75,0,6.55.21,9.27-.24a22.54,22.54,0,0,0,6.69-1.85,8.37,8.37,0,0,0,3.87-3.86,6,6,0,0,0-3.9-5.73,14.34,14.34,0,0,0-7-.93c-2.59.2-4.52.67-6.83.67a11.61,11.61,0,0,1-4.64-.75,4.4,4.4,0,0,1-1.58-1.88c-.43-.76-.61-1.46-1.35-1.48,0,0-10.86.54-11.95.71-1.26.2-1.16,4.46-1.26,5.3-.07.65,0,1.35-.17,2C255.34,430.82,255.26,431.24,255.19,431.67Z" style="fill:#37474f"></path><path d="M278.35,425.93a1.68,1.68,0,0,1,.55-.24c1-.23,1.92.72,2.42,1.47a6.21,6.21,0,0,1,.66,1.49,3.44,3.44,0,0,1,.18,2c0,.17-.16.37-.34.34s-.21-.22-.24-.37a7.49,7.49,0,0,0-1-2.62,3,3,0,0,0-.71-.93,3,3,0,0,0-1.09-.57c-.16,0-.87,0-.72-.31a.57.57,0,0,1,.13-.14Z" style="fill:#fafafa"></path><path d="M275.31,426.14a2,2,0,0,1,1.42.28,2.79,2.79,0,0,1,.93,1.29,4.12,4.12,0,0,1,.32,3.42c-.17.32-.47.18-.6-.1a5.17,5.17,0,0,1-.2-1,8.83,8.83,0,0,0-.81-2.22,3.66,3.66,0,0,0-.49-.8,1.58,1.58,0,0,0-.5-.39,1,1,0,0,0-.29-.1h-.29c0-.15.15-.24.29-.28Z" style="fill:#fafafa"></path><path d="M272.19,425.5a1.88,1.88,0,0,1,.93.53,2.58,2.58,0,0,1,.49.87,9.46,9.46,0,0,1,.57,2.21,2.71,2.71,0,0,1-.28,1.56c-.1.19-.31.38-.51.3s-.23-.41-.26-.61c-.06-.35-.05-.72-.08-1.08a6.25,6.25,0,0,0-1.51-3.58.22.22,0,0,1-.08-.18c0-.09.16-.11.26-.1A2.43,2.43,0,0,1,272.19,425.5Z" style="fill:#fafafa"></path><path d="M281.6,426c1.07-.09,3.42,1.18,4.73,4.29a17.51,17.51,0,0,1,1,7.16,10.76,10.76,0,0,0,5.76-3.11,6.36,6.36,0,0,0,1.37-1.92,6.22,6.22,0,0,0-1.45-4.79c-1.68-1.7-4.16-2.72-8-2.66-4.26.06-4.56,1.18-4.56,1.18Z" style="fill:#fafafa"></path><path d="M256.06,416s.51,5.41,1,7.9c.29,1.41,1.8,3.54,6.31,3.3,3.18-.17,4.85-2,5.21-3.57s-.08-9.9-.08-9.9Z" style="fill:#ffbda7"></path><path d="M192.36,408.07l5.92-15.74,14.81,3.48s-11.06,16.9-12.17,18.43C199.08,416.76,192.36,408.07,192.36,408.07Z" style="fill:#ffbda7"></path><path d="M186.13,412.59a7.32,7.32,0,0,0,.05,1.87l.72,6.5a16.67,16.67,0,0,0,.45,2.54,15.06,15.06,0,0,1,.23,3.08l.18,3.24a5.8,5.8,0,0,1,0,1.38c-.1.45,7.2,4.2,10.14,5.64l.53.22a4.64,4.64,0,0,0,4.66-1.22,7.6,7.6,0,0,0-2.23-8.45s-.36,0-.38-2.71a57.85,57.85,0,0,1,0-5.89,12.33,12.33,0,0,1,.83-3.6c.41-1.05,1.21-2.18,1.12-3.34-.06-.93-.72-1.52-1.2-2.26a7.12,7.12,0,0,0-1.81-1.78,12.8,12.8,0,0,0-5.16-2.26,2.2,2.2,0,0,0-1.14,0c-.57.19-.89.75-1.26,1.21a13,13,0,0,1-3.16,2.45,5.63,5.63,0,0,0-2.55,3C186.18,412.3,186.15,412.44,186.13,412.59Z" style="fill:#37474f"></path><path d="M200.9,427.39a9.67,9.67,0,0,1,1,1.28h0a9.51,9.51,0,0,1,1.24,7.17c5.05-.62,6.29-3.5,6.29-3.5s.2-2.45-2.77-4.14a7.44,7.44,0,0,0-1.12-.52l-.05,0A7.67,7.67,0,0,0,200.9,427.39Z" style="fill:#fafafa"></path><path d="M184.75,413.35c-1.32.54-.86,4.07.1,7.46s1.45,4.56,1.12,7.41-.54,4.13.69,5.13,10.87,5,10.87,5a32.85,32.85,0,0,1-2.48-10.58c-.46-6.29-1-10.32-4.13-13.08A5.82,5.82,0,0,0,184.75,413.35Z" style="fill:#C7A14A"></path><path d="M184.75,413.35c-1.32.54-.86,4.07.1,7.46s1.45,4.56,1.12,7.41-.54,4.13.69,5.13,10.87,5,10.87,5a32.85,32.85,0,0,1-2.48-10.58c-.46-6.29-1-10.32-4.13-13.08A5.82,5.82,0,0,0,184.75,413.35Z" style="opacity:0.4"></path><path d="M209.42,432.34a18,18,0,0,1-7.81,3.62c-4.22.61-4.49-1-5.09-5.82s-1-11.58-3.08-14.47-5.45-4.11-6.75-3.76c-.27-.13-1.54.86-1.94,1.44a7.38,7.38,0,0,1,5.62,2c2.73,2.42,3.39,7.7,3.67,12.51s.68,10.37,4.66,10.83a14.72,14.72,0,0,0,10.67-3.54A1.91,1.91,0,0,0,209.42,432.34Z" style="fill:#263238"></path><path d="M200.54,425.61a1.38,1.38,0,0,1,.62.87,2.74,2.74,0,0,1-1.35,2.57c-.53.32-1,.22-.16-.83A5.19,5.19,0,0,0,200.54,425.61Z" style="fill:#fafafa"></path><path d="M200.51,422.22a1.15,1.15,0,0,1,.39.72,4.23,4.23,0,0,1-1.66,2.71c-.92.44-.45-.58,0-1A18.37,18.37,0,0,0,200.51,422.22Z" style="fill:#fafafa"></path><path d="M200.62,418.48a.84.84,0,0,1,.46.59c0,.39-1.83,1.84-2.43,1.82s-.74-.21,0-.72S200.62,418.48,200.62,418.48Z" style="fill:#fafafa"></path><path d="M207.73,404.42S235.52,360,236.3,356.66s5.16-38,5.16-38L249.27,359c-.55,2.93-1.67,8.73-1.57,12.11a127.45,127.45,0,0,0,2.52,19.61c2.68,14,5.84,27.28,5.84,27.28a11.35,11.35,0,0,0,6.15,1,16,16,0,0,0,6.54-2s1.25-38.05,1.41-46.73.82-13.93.9-19.65c.12-9.11-.05-14.35-1.47-31-1.26-14.78-6.14-40.61-6.14-40.61L218.39,278s-5.39,7-5.23,25.87c.12,14.75,3.16,49.4,3.16,49.4-6.83,4.47-8.81,8.93-11.86,17.33-1.92,5.3-6.68,21.93-8.11,26.78C202.28,398.76,207.73,404.42,207.73,404.42Z" style="fill:#ffbda7"></path><path d="M207.73,404.42S235.52,360,236.3,356.66s5.16-38,5.16-38L249.27,359c-.55,2.93-1.67,8.73-1.57,12.11a127.45,127.45,0,0,0,2.52,19.61c2.68,14,5.84,27.28,5.84,27.28a11.35,11.35,0,0,0,6.15,1,16,16,0,0,0,6.54-2s1.25-38.05,1.41-46.73.82-13.93.9-19.65c.12-9.11-.05-14.35-1.47-31-1.26-14.78-6.14-40.61-6.14-40.61L218.39,278s-5.39,7-5.23,25.87c.12,14.75,3.16,49.4,3.16,49.4-6.83,4.47-8.81,8.93-11.86,17.33-1.92,5.3-6.68,21.93-8.11,26.78C202.28,398.76,207.73,404.42,207.73,404.42Z" style="opacity:0.4"></path><path d="M209.18,402.46l-1.91,2.72s-6-6.71-11.21-7.29l.88-3.2A21.26,21.26,0,0,1,209.18,402.46Z" style="fill:#37474f"></path><path d="M268.83,414.59c-2.24,2.52-9.56,3.46-13.25,1.33l.67,3.69a12.81,12.81,0,0,0,6.44.88,14.23,14.23,0,0,0,6.14-2.06Z" style="fill:#37474f"></path></g><g id="freepik--top--inject-506"><path d="M191.64,161.77c.24-3.26.78-7.21,2.66-10a3.26,3.26,0,0,1,1.56-1.32c.68-.3.81-.11,1.19-1A2.64,2.64,0,0,1,199,148a2,2,0,0,0,1.1-.35c.28-.28.28-.72.44-1.08a1.56,1.56,0,0,1,2.25-.49,2.27,2.27,0,0,1,.77,2.36c2.05-.06,2.44,2,2.14,3.57-.56,2.88-.9,4.13-1.46,7-.19.95-.9,5.45,1.28,3.95a5.3,5.3,0,0,0,1.07-1.19,8.7,8.7,0,0,1,2.72-2.81,1.73,1.73,0,0,1,1.94,0,1.78,1.78,0,0,1,0,2c-.53,1.07-1.19,2-1.59,3.09a33.59,33.59,0,0,1-1.74,3.75c-.93,1.77-2.79,3.39-3.47,5.27-1.81,4.73,1.73,27.7,1.73,27.7,4.31,6.69,9.15,14.41,14.55,19.87,2.91,2.94,6.18,4.64,8.2,6.42,6.34,5.58-5.76,14.21-10.45,19.17-2.14-4.56-5.6-8.34-10.15-15-4.32-6.31-8-12.44-12.75-20.3-2.76-4.52-3.54-4.53-3.9-10.16-.46-7.09.33-11.82.48-18.31.1-4,.24-6.95.34-9.85.06-2.09-.62-3.58-.82-5.69A30.05,30.05,0,0,1,191.64,161.77Z" style="fill:#ffbda7"></path><path d="M266.09,288.66c-2.62-15.16-5.44-22.22-6-26.92a23.28,23.28,0,0,0-.05-2.43c4.83-2.9,7.13-7.53,5.52-12.8s-11.23-18.09-16.25-19.39c0,0-6-.34-6.92-.45-7.48-.15-11.55-.16-14.47-.41l-1.14,0c-8.16.08-11.62,8.59-11.47,14,.2,7,2.8,15.05,4.41,21.47,1.21,6.18,1.67,8.27-2.64,16.47s-5.32,17.43-4.89,25.92.73,12.78.73,12.78c6,6.91,34.44,8.41,41.69,6.66l1.73-29.89,6.44,28.82s5.31-1.7,7.36-3.52C270.16,319,269.2,306.65,266.09,288.66Z" style="fill:#C7A14A"></path><path d="M266.09,288.66c-2.62-15.16-5.44-22.22-6-26.92a23.28,23.28,0,0,0-.05-2.43c4.83-2.9,7.13-7.53,5.52-12.8s-11.23-18.09-16.25-19.39c0,0-6-.34-6.92-.45-7.48-.15-11.55-.16-14.47-.41l-1.14,0c-8.16.08-11.62,8.59-11.47,14,.2,7,2.8,15.05,4.41,21.47,1.21,6.18,1.67,8.27-2.64,16.47s-5.32,17.43-4.89,25.92.73,12.78.73,12.78c6,6.91,34.44,8.41,41.69,6.66l1.73-29.89,6.44,28.82s5.31-1.7,7.36-3.52C270.16,319,269.2,306.65,266.09,288.66Z" style="fill:#fff;opacity:0.2"></path><path d="M321,275a1,1,0,0,0-.24-.15c-1.24-.64-3-.42-4.32-.43s-2.9-.07-4.34-.22a28.57,28.57,0,0,1-6.42-1.61c.68-1.33,5.18-2.11,5.66-4.38.43-2.05-.13-1.7-3.95-1.1s-9.28,4.41-13.66,3.39l-21.12-6.71s-4.88-13.11-5.18-14c-4.26-12.88-4.62-22.73-18.06-22.69-2.88,4.88-2.73,12.79-1,18.49,1,3.31,9.61,23,10.21,24.13,2.77,5.68,3.68,6.45,7.49,7.74,6.13,2.08,22.06,3.11,26.39,4.06s8.29,2.64,12.83,3.43a25.3,25.3,0,0,0,3.88.42,18.45,18.45,0,0,0,5.68-.8,8.12,8.12,0,0,0,2.28-.79,5.43,5.43,0,0,0,1.69-1.65,1.06,1.06,0,0,1,.22-.29,1.1,1.1,0,0,1,.56-.22,1.85,1.85,0,0,0,1-.51c.32-.36.36-.89.66-1.26a2.82,2.82,0,0,1,1.23-.66,1.42,1.42,0,0,0,1-.9,1.18,1.18,0,0,0-.1-.69c-.32-.72-.85-.83-1.46-1.17-.27-.16-.23-.37-.34-.65A1.56,1.56,0,0,0,321,275Z" style="fill:#ffbda7"></path><path d="M243.75,218.52l.49,8.29c-4.43,3.3-14,4.05-15.43,1.56l-.61-10.66Z" style="fill:#ffbda7"></path><path d="M253.69,190.54a4.43,4.43,0,0,0-.6-2.33,2.22,2.22,0,0,0,.33-4.18,4.89,4.89,0,0,0,3-2.79,9.19,9.19,0,0,1-5.44.3c-1.79-.44-3.11-1.53-4.69-2.38a24.24,24.24,0,0,0-26.27,2.58,13.55,13.55,0,0,0-3.37,3.71c-1.06,1.83-.92,3.53-1.08,5.54-.14,1.71-.69,3.38-.81,5.12a40.14,40.14,0,0,0,.14,5.8c.64,8,20.27,10.84,20.55,16.33q4.33-6.59,8.69-13.17c-.08-.68,1.1-2,1.44-2.56.62-1.07,1.66-1.81,2.28-2.85a8.54,8.54,0,0,0,1.19-3.47,7.09,7.09,0,0,0,3.92-3.1A5.18,5.18,0,0,0,253.69,190.54Z" style="fill:#263238"></path><path d="M252.62,199.56s3.85,4.33,3.48,4.88a8.21,8.21,0,0,1-2.39,1.34Z" style="fill:#f0997a"></path><path d="M240.78,185.78c3.38,1.19,9.25,3.43,12,14.46,2.84,11.32.64,15.64-.82,17.34-1,1.15-6.68,2.21-9.77,1.69-3.88-.66-12.44-3.5-16.95-9-5.31-6.44-7.35-15.64-2.63-19.91C229.25,184.38,237.92,184.78,240.78,185.78Z" style="fill:#ffbda7"></path><path d="M251.68,217.83c-1.25.87-5,1.63-7.92,1.57l-.16-2.08a20.7,20.7,0,0,0,3.93.74A14.24,14.24,0,0,0,251.68,217.83Z" style="fill:#f0997a"></path><path d="M228.33,220.15a60.57,60.57,0,0,0-6.07-4.61c-4.52-3.35-8-7.64-9-13.39-.75-4.26-.69-7.84,1.13-11.77a6.06,6.06,0,0,1,1.9-2.46c.83-.61,1.56-1.38,2.41-2A14,14,0,0,1,222.4,184c1.52-.5,3-1.13,4.54-1.55,5.27-1.42,11.07-1.51,16,.75l.08,0a9.85,9.85,0,0,1,4,3.07,6.75,6.75,0,0,1-1,9,4,4,0,0,1,.75,3,31.4,31.4,0,0,1-.65,4.42,1.81,1.81,0,0,1-.26.76,1.42,1.42,0,0,1-2,0c-.57-.46-.91-1.14-1.44-1.66a5.53,5.53,0,0,0-4-1.07,4.18,4.18,0,0,0-3.19,2.24c-1.14,2.4.49,5.17,2.41,6.59a5.3,5.3,0,0,0,3.76,1.33,6.06,6.06,0,0,0,2-.43,8.37,8.37,0,0,1-4.07,8.21S233.85,221.17,228.33,220.15Z" style="fill:#263238"></path></g></g></g><g id="freepik--musical-notes--inject-506"><g id="freepik--musical-notes--inject-506"><g id="freepik--musical-notes--inject-506"><path id="freepik--musical-note--inject-506" d="M179.88,86.62l-.75,10.66a2.83,2.83,0,0,0-.92-.23,2.8,2.8,0,1,0,2.6,3l.68-9.56,9.79-1.85h0l-.66,9.48a2.55,2.55,0,0,0-.92-.24,2.8,2.8,0,1,0,2.6,3h0L193.4,85Z" style="fill:#C7A14A"></path><path id="freepik--musical-note--inject-506" d="M434.85,103.45l-.64,9a2.49,2.49,0,0,0-.78-.2,2.37,2.37,0,1,0,2.21,2.53l.57-8.1,8.3-1.57h0l-.55,8a2.49,2.49,0,0,0-.78-.2,2.37,2.37,0,1,0,2.2,2.53h0l.93-13.4Z" style="fill:#C7A14A"></path><path id="freepik--musical-note--inject-506" d="M52.19,182.45l-4.36,8.79a2.24,2.24,0,0,0-.69-.52,2.56,2.56,0,1,0,1.16,3.44l3.91-7.88,9,1.84h0l-3.85,7.81a2.84,2.84,0,0,0-.7-.52,2.57,2.57,0,1,0,1.17,3.44h0l6.43-13Z" style="fill:#C7A14A"></path><path id="freepik--musical-note--inject-506" d="M400.19,69.32a4.23,4.23,0,0,1,1.75-.07,9.35,9.35,0,0,1,2.24.74,16,16,0,0,0,2.93,1.16,3.94,3.94,0,0,0,3.05-.39,4.13,4.13,0,0,1-1.73-.61c-1.25-.79-2-2.43-3.11-3.46-1.58-1.53-3.4-1.82-5.73-1.72-.39,1.89-.83,3.77-1.25,5.66-.32,1.48-.65,3-1,4.44,0,.14-.5,2-.5,2a3.84,3.84,0,0,0-1.57-.75,3.25,3.25,0,1,0,2.49,3.87Z" style="fill:#C7A14A"></path><path id="freepik--musical-note--inject-506" d="M458.78,215.76a4.4,4.4,0,0,1,1.27-1.36,10.17,10.17,0,0,1,2.24-1.11,16.77,16.77,0,0,0,3.08-1.31,4.12,4.12,0,0,0,2-2.57,4.23,4.23,0,0,1-1.75.83c-1.54.34-3.36-.3-4.93-.29-2.33,0-3.92,1.16-5.61,3,1.12,1.71,2.19,3.46,3.29,5.2.85,1.36,1.71,2.71,2.57,4.07l1.12,1.88a4.21,4.21,0,0,0-1.74.61,3.45,3.45,0,1,0,4.76,1.06Z" style="fill:#C7A14A"></path><path id="freepik--musical-note--inject-506" d="M49.75,101.8A4.93,4.93,0,0,1,51,100.23a10.65,10.65,0,0,1,2.36-1.36,19.08,19.08,0,0,0,3.25-1.65,4.54,4.54,0,0,0,2-2.94,4.76,4.76,0,0,1-1.85,1c-1.64.47-3.67-.09-5.38,0-2.53.19-4.18,1.55-5.88,3.64,1.33,1.79,2.63,3.62,3.94,5.42l3.09,4.25,1.36,2a4.53,4.53,0,0,0-1.86.79,3.76,3.76,0,1,0,5.26.81Z" style="fill:#C7A14A"></path><path id="freepik--musical-note--inject-506" d="M222.43,130.62a4.61,4.61,0,0,1,1.55-1.1,10.19,10.19,0,0,1,2.48-.65,17.93,17.93,0,0,0,3.35-.68,4.22,4.22,0,0,0,2.54-2.17,4.44,4.44,0,0,1-1.93.48c-1.6,0-3.3-1-4.88-1.31-2.34-.46-4.17.36-6.23,1.83.76,2,1.48,3.93,2.22,5.89l1.74,4.62c.06.14.74,2.11.74,2.11a4.28,4.28,0,0,0-1.87.25,3.53,3.53,0,1,0,4.55,2.05Z" style="fill:#C7A14A"></path></g><g id="freepik--musical-notes--inject-506" style="opacity:0.5"><path id="freepik--musical-note--inject-506" d="M179.88,86.62l-.75,10.66a2.83,2.83,0,0,0-.92-.23,2.8,2.8,0,1,0,2.6,3l.68-9.56,9.79-1.85h0l-.66,9.48a2.55,2.55,0,0,0-.92-.24,2.8,2.8,0,1,0,2.6,3h0L193.4,85Z" style="fill:#fff"></path><path id="freepik--musical-note--inject-506" d="M434.85,103.45l-.64,9a2.49,2.49,0,0,0-.78-.2,2.37,2.37,0,1,0,2.21,2.53l.57-8.1,8.3-1.57h0l-.55,8a2.49,2.49,0,0,0-.78-.2,2.37,2.37,0,1,0,2.2,2.53h0l.93-13.4Z" style="fill:#fff"></path><path id="freepik--musical-note--inject-506" d="M52.19,182.45l-4.36,8.79a2.24,2.24,0,0,0-.69-.52,2.56,2.56,0,1,0,1.16,3.44l3.91-7.88,9,1.84h0l-3.85,7.81a2.84,2.84,0,0,0-.7-.52,2.57,2.57,0,1,0,1.17,3.44h0l6.43-13Z" style="fill:#fff"></path><path id="freepik--musical-note--inject-506" d="M400.19,69.32a4.23,4.23,0,0,1,1.75-.07,9.35,9.35,0,0,1,2.24.74,16,16,0,0,0,2.93,1.16,3.94,3.94,0,0,0,3.05-.39,4.13,4.13,0,0,1-1.73-.61c-1.25-.79-2-2.43-3.11-3.46-1.58-1.53-3.4-1.82-5.73-1.72-.39,1.89-.83,3.77-1.25,5.66-.32,1.48-.65,3-1,4.44,0,.14-.5,2-.5,2a3.84,3.84,0,0,0-1.57-.75,3.25,3.25,0,1,0,2.49,3.87Z" style="fill:#fff"></path><path id="freepik--musical-note--inject-506" d="M458.78,215.76a4.4,4.4,0,0,1,1.27-1.36,10.17,10.17,0,0,1,2.24-1.11,16.77,16.77,0,0,0,3.08-1.31,4.12,4.12,0,0,0,2-2.57,4.23,4.23,0,0,1-1.75.83c-1.54.34-3.36-.3-4.93-.29-2.33,0-3.92,1.16-5.61,3,1.12,1.71,2.19,3.46,3.29,5.2.85,1.36,1.71,2.71,2.57,4.07l1.12,1.88a4.21,4.21,0,0,0-1.74.61,3.45,3.45,0,1,0,4.76,1.06Z" style="fill:#fff"></path><path id="freepik--musical-note--inject-506" d="M49.75,101.8A4.93,4.93,0,0,1,51,100.23a10.65,10.65,0,0,1,2.36-1.36,19.08,19.08,0,0,0,3.25-1.65,4.54,4.54,0,0,0,2-2.94,4.76,4.76,0,0,1-1.85,1c-1.64.47-3.67-.09-5.38,0-2.53.19-4.18,1.55-5.88,3.64,1.33,1.79,2.63,3.62,3.94,5.42l3.09,4.25,1.36,2a4.53,4.53,0,0,0-1.86.79,3.76,3.76,0,1,0,5.26.81Z" style="fill:#fff"></path><path id="freepik--musical-note--inject-506" d="M222.43,130.62a4.61,4.61,0,0,1,1.55-1.1,10.19,10.19,0,0,1,2.48-.65,17.93,17.93,0,0,0,3.35-.68,4.22,4.22,0,0,0,2.54-2.17,4.44,4.44,0,0,1-1.93.48c-1.6,0-3.3-1-4.88-1.31-2.34-.46-4.17.36-6.23,1.83.76,2,1.48,3.93,2.22,5.89l1.74,4.62c.06.14.74,2.11.74,2.11a4.28,4.28,0,0,0-1.87.25,3.53,3.53,0,1,0,4.55,2.05Z" style="fill:#fff"></path></g></g></g></svg>
